<?xml version="1.0" encoding="utf-8"?>
<!-- Generator: Adobe Illustrator 25.4.1, SVG Export Plug-In . SVG Version: 6.00 Build 0)  -->
<svg version="1.1" id="Layer_1" xmlns="http://www.w3.org/2000/svg" xmlns:xlink="http://www.w3.org/1999/xlink" x="0px" y="0px"
	 viewBox="0 0 40 40" style="enable-background:new 0 0 40 40;" xml:space="preserve">
<style type="text/css">
	
		.st0{clip-path:url(#SVGID_00000034062096566291595770000002044249989413777312_);fill-rule:evenodd;clip-rule:evenodd;fill:#C3C3CC;}
	
		.st1{clip-path:url(#SVGID_00000034062096566291595770000002044249989413777312_);fill:none;stroke:#C3C3CC;stroke-width:0.5784;stroke-miterlimit:10;}
</style>
<g>
	<defs>
		<rect id="SVGID_1_" x="2" y="2.1" width="36" height="35.6"/>
	</defs>
	<clipPath id="SVGID_00000106143462713399893300000005793464380485737890_">
		<use xlink:href="#SVGID_1_"  style="overflow:visible;"/>
	</clipPath>
	
		<path style="clip-path:url(#SVGID_00000106143462713399893300000005793464380485737890_);fill-rule:evenodd;clip-rule:evenodd;fill:#C3C3CC;" d="
		M27,18.2c-3.8-1.6-10.1-1.6-13.9,0c-1.5,0.6-2.4,1.4-2.4,2.2c0,0.8,0.9,1.6,2.4,2.2c3.8,1.6,10.1,1.6,13.9,0
		c1.5-0.6,2.4-1.4,2.4-2.2C29.4,19.6,28.5,18.8,27,18.2 M8.5,22.7c-2.4-0.7-4.2-2.9-4.2-5.5c0-2.4,1.5-4.6,3.8-5.4
		c0.4-0.1,0.6-0.5,0.7-0.9c0.4-3.7,3.4-6.5,7.2-6.5c2.5,0,4.8,1.3,6.1,3.3c0.3,0.5,0.9,0.6,1.4,0.4c0.7-0.4,1.4-0.6,2.2-0.6
		c2.8,0,4.8,2.5,4.3,5.3c-0.1,0.6,0.3,1.1,0.8,1.2c0.1,0,0.3,0,0.5,0c2.4,0,4.4,2,4.4,4.4c0,2.4-1.8,4.3-4.2,4.4v-2.5
		c0-1.7-1.4-3.1-3.7-4.1c-4.3-1.9-11.2-1.9-15.5,0c-2.3,1-3.7,2.4-3.7,4.1L8.5,22.7L8.5,22.7z M10.6,26.1v-2.5c4.4,3,14.3,3,18.8,0
		v2.5c0,0.8-0.9,1.6-2.4,2.2C23.2,30,16.8,30,13,28.3C11.6,27.7,10.6,26.9,10.6,26.1z M10.6,31.9c0,0.8,0.9,1.6,2.4,2.2
		c3.8,1.6,10.1,1.6,13.9,0c1.5-0.6,2.4-1.4,2.4-2.2v-2.5c-4.4,3-14.3,3-18.8,0V31.9z M31.5,31.9c0,1.7-1.4,3.1-3.7,4.1
		c-4.3,1.8-11.2,1.8-15.5,0c-2.3-1-3.7-2.4-3.7-4.1v-7.1c-3.6-0.7-6.2-3.9-6.2-7.6c0-3.1,1.8-5.8,4.5-7.1c0.7-4.4,4.6-7.7,9.1-7.7
		c2.9,0,5.6,1.3,7.3,3.6c4.2-1.6,8.9,1.5,8.8,6.1c3.2,0.4,5.6,3.2,5.6,6.4c0,3.5-2.8,6.4-6.3,6.5V31.9L31.5,31.9L31.5,31.9z"/>
	
		<path style="clip-path:url(#SVGID_00000106143462713399893300000005793464380485737890_);fill:none;stroke:#C3C3CC;stroke-width:0.5784;stroke-miterlimit:10;" d="
		M27,18.2c-3.8-1.6-10.1-1.6-13.9,0c-1.5,0.6-2.4,1.4-2.4,2.2c0,0.8,0.9,1.6,2.4,2.2c3.8,1.6,10.1,1.6,13.9,0
		c1.5-0.6,2.4-1.4,2.4-2.2C29.4,19.6,28.5,18.8,27,18.2z M8.5,22.7c-2.4-0.7-4.2-2.9-4.2-5.5c0-2.4,1.5-4.6,3.8-5.4
		c0.4-0.1,0.6-0.5,0.7-0.9c0.4-3.7,3.4-6.5,7.2-6.5c2.5,0,4.8,1.3,6.1,3.3c0.3,0.5,0.9,0.6,1.4,0.4c0.7-0.4,1.4-0.6,2.2-0.6
		c2.8,0,4.8,2.5,4.3,5.3c-0.1,0.6,0.3,1.1,0.8,1.2c0.1,0,0.3,0,0.5,0c2.4,0,4.4,2,4.4,4.4c0,2.4-1.8,4.3-4.2,4.4v-2.5
		c0-1.7-1.4-3.1-3.7-4.1c-4.3-1.9-11.2-1.9-15.5,0c-2.3,1-3.7,2.4-3.7,4.1L8.5,22.7L8.5,22.7z M10.6,26.1v-2.5c4.4,3,14.3,3,18.8,0
		v2.5c0,0.8-0.9,1.6-2.4,2.2C23.2,30,16.8,30,13,28.3C11.6,27.7,10.6,26.9,10.6,26.1z M10.6,31.9c0,0.8,0.9,1.6,2.4,2.2
		c3.8,1.6,10.1,1.6,13.9,0c1.5-0.6,2.4-1.4,2.4-2.2v-2.5c-4.4,3-14.3,3-18.8,0V31.9z M31.5,31.9c0,1.7-1.4,3.1-3.7,4.1
		c-4.3,1.8-11.2,1.8-15.5,0c-2.3-1-3.7-2.4-3.7-4.1v-7.1c-3.6-0.7-6.2-3.9-6.2-7.6c0-3.1,1.8-5.8,4.5-7.1c0.7-4.4,4.6-7.7,9.1-7.7
		c2.9,0,5.6,1.3,7.3,3.6c4.2-1.6,8.9,1.5,8.8,6.1c3.2,0.4,5.6,3.2,5.6,6.4c0,3.5-2.8,6.4-6.3,6.5V31.9L31.5,31.9L31.5,31.9z"/>
</g>
</svg>
