<?xml version="1.0" encoding="utf-8"?>
<!-- Generator: Adobe Illustrator 25.4.1, SVG Export Plug-In . SVG Version: 6.00 Build 0)  -->
<svg version="1.1" id="Layer_1" xmlns="http://www.w3.org/2000/svg" xmlns:xlink="http://www.w3.org/1999/xlink" x="0px" y="0px"
	 viewBox="0 0 40 40" style="enable-background:new 0 0 40 40;" xml:space="preserve">
<style type="text/css">
	.st0{clip-path:url(#SVGID_00000040557978102937303490000001503783313641482668_);fill:#C3C3CC;}
</style>
<g>
	<defs>
		<rect id="SVGID_1_" x="1.5" y="1.5" width="37" height="37"/>
	</defs>
	<clipPath id="SVGID_00000065067063408006578870000007531085449684951964_">
		<use xlink:href="#SVGID_1_"  style="overflow:visible;"/>
	</clipPath>
	<path style="clip-path:url(#SVGID_00000065067063408006578870000007531085449684951964_);fill:#C3C3CC;" d="M20,1.5
		c-2.3,0-4.2,1.9-4.2,4.2c0,0.8,0.2,1.5,0.6,2.1l-6.6,6.6c-0.6,0.5-0.6,1.4-0.1,2c0.5,0.6,1.4,0.6,2,0.1c0,0,0.1-0.1,0.1-0.1
		l6.8-6.8c0.5,0.2,1,0.3,1.5,0.3c2.3,0,4.2-1.9,4.2-4.2S22.3,1.5,20,1.5 M20,4.3c0.8,0,1.4,0.6,1.4,1.4C21.4,6.4,20.8,7,20,7
		c-0.8,0-1.4-0.6-1.4-1.4C18.6,4.9,19.2,4.3,20,4.3 M24.5,9.3c-0.8,0.1-1.3,0.8-1.2,1.5c0,0.3,0.2,0.6,0.4,0.8l6.8,6.8
		c-0.2,0.5-0.3,1-0.3,1.5c0,2.3,1.9,4.2,4.2,4.2s4.2-1.9,4.2-4.2s-1.9-4.2-4.2-4.2c-0.8,0-1.5,0.2-2.1,0.6l-6.6-6.6
		C25.3,9.5,24.9,9.3,24.5,9.3 M5.7,15.8c-2.3,0-4.2,1.9-4.2,4.2s1.9,4.2,4.2,4.2c0.8,0,1.5-0.2,2.1-0.6l6.6,6.6
		c0.5,0.6,1.4,0.6,2,0.1c0.6-0.5,0.6-1.4,0.1-2c0,0-0.1-0.1-0.1-0.1l-6.8-6.8C9.7,21,9.8,20.5,9.8,20C9.8,17.7,7.9,15.8,5.7,15.8
		 M5.7,18.6C6.4,18.6,7,19.2,7,20c0,0.8-0.6,1.4-1.4,1.4c-0.8,0-1.4-0.6-1.4-1.4C4.3,19.2,4.9,18.6,5.7,18.6 M34.3,18.6
		c0.8,0,1.4,0.6,1.4,1.4c0,0.8-0.6,1.4-1.4,1.4c-0.8,0-1.4-0.6-1.4-1.4C32.9,19.2,33.6,18.6,34.3,18.6 M29.1,23.2
		c-0.3,0-0.6,0.2-0.8,0.4l-6.8,6.8c-0.5-0.2-0.9-0.3-1.5-0.3c-2.3,0-4.2,1.9-4.2,4.2s1.9,4.2,4.2,4.2s4.2-1.9,4.2-4.2
		c0-0.8-0.2-1.5-0.6-2.1l6.6-6.6c0.5-0.5,0.6-1.4,0-2C30,23.3,29.5,23.2,29.1,23.2 M20,33c0.8,0,1.4,0.6,1.4,1.4
		c0,0.8-0.6,1.4-1.4,1.4c-0.8,0-1.4-0.6-1.4-1.4C18.6,33.6,19.2,33,20,33"/>
</g>
</svg>
