<?xml version="1.0" encoding="utf-8"?>
<!-- Generator: Adobe Illustrator 25.4.1, SVG Export Plug-In . SVG Version: 6.00 Build 0)  -->
<svg version="1.1" id="Layer_1" xmlns="http://www.w3.org/2000/svg" xmlns:xlink="http://www.w3.org/1999/xlink" x="0px" y="0px"
	 viewBox="0 0 40 40" style="enable-background:new 0 0 40 40;" xml:space="preserve">
<style type="text/css">
	.st0{clip-path:url(#SVGID_00000114043774122008207750000010723366979366388137_);fill:#C3C3CC;}
	
		.st1{clip-path:url(#SVGID_00000114043774122008207750000010723366979366388137_);fill:none;stroke:#C3C3CC;stroke-width:0.8;stroke-miterlimit:10;}
</style>
<g>
	<defs>
		<rect id="SVGID_1_" x="2.1" y="3" width="35.7" height="34"/>
	</defs>
	<clipPath id="SVGID_00000030478733706064287240000012274323479107659140_">
		<use xlink:href="#SVGID_1_"  style="overflow:visible;"/>
	</clipPath>
	<path style="clip-path:url(#SVGID_00000030478733706064287240000012274323479107659140_);fill:#C3C3CC;" d="M34.7,7.5
		c0.3,0,0.5-0.2,0.5-0.5V5.9c0-1.4-1.1-2.5-2.5-2.5H9.6c-1.6,0-2.9,1.3-2.9,3v26.1H3c-0.3,0-0.5,0.2-0.5,0.5v0.8
		c0,1.6,1.3,2.9,2.8,2.9h23.4c1.4,0,2.5-1.1,2.5-2.5v-6.5c0.1,0,0.2,0,0.3,0l1.8,3.9c0.2,0.4,0.8,0.4,0.9-0.1l0.5-2.2l2,0.9
		c0.4,0.2,0.8-0.2,0.6-0.6l-1.9-4.1c3.2-3.9,0.7-9.9-4.3-10.2V7.5H34.7L34.7,7.5z M34.6,28c-0.3-0.1-0.6,0-0.7,0.3l-0.3,1.5
		l-1.1-2.4c0.9-0.3,1.7-0.7,2.3-1.3l1.2,2.5L34.6,28z M34.6,24.9c-2.2,2.5-6.1,2.2-8-0.5c-2.4-3.5-0.2-8,3.6-8.4
		C35,15.6,37.9,21.4,34.6,24.9L34.6,24.9z M30.2,34.1c0,0.8-0.7,1.5-1.5,1.5c-0.8,0-1.5-0.7-1.5-1.5v-1.2c0-0.3-0.2-0.5-0.5-0.5H7.6
		V6.4c0-1.1,0.9-2,2-2h21.2c-0.7,0.9-0.5,0.5-0.5,10.7c-2.2,0.2-4,1.6-5,3.5H10.8v1h14.1c-0.4,1.2-0.3,2.5,0,3.7H10.8v1h14.5
		c0.1,0.2,0.2,0.4,0.4,0.6l-1.5,3.1H10.8v1h12.9l-0.3,0.5c-0.2,0.4,0.2,0.8,0.6,0.7l2.1-0.9l0.5,2.2c0.1,0.4,0.7,0.5,0.9,0.1l1.8-4
		c0.3,0.1,0.5,0.1,0.8,0.1L30.2,34.1L30.2,34.1z M3.5,33.4h22.7c0,0.8-0.1,1.4,0.5,2.2H5.3c-1,0-1.8-0.8-1.8-1.9L3.5,33.4L3.5,33.4z
		 M34.2,6.6h-3V5.9c0-0.9,0.7-1.6,1.5-1.6c0.8,0,1.5,0.7,1.5,1.6L34.2,6.6L34.2,6.6z M26.3,28l-1.4,0.6l1.4-2.9
		c0.6,0.7,1.4,1.2,2.2,1.5l-1.2,2.6l-0.3-1.4C26.9,28,26.5,27.8,26.3,28L26.3,28z"/>
	
		<path style="clip-path:url(#SVGID_00000030478733706064287240000012274323479107659140_);fill:none;stroke:#C3C3CC;stroke-width:0.8;stroke-miterlimit:10;" d="
		M34.7,7.5c0.3,0,0.5-0.2,0.5-0.5V5.9c0-1.4-1.1-2.5-2.5-2.5H9.6c-1.6,0-2.9,1.3-2.9,3v26.1H3c-0.3,0-0.5,0.2-0.5,0.5v0.8
		c0,1.6,1.3,2.9,2.8,2.9h23.4c1.4,0,2.5-1.1,2.5-2.5v-6.5c0.1,0,0.2,0,0.3,0l1.8,3.9c0.2,0.4,0.8,0.4,0.9-0.1l0.5-2.2l2,0.9
		c0.4,0.2,0.8-0.2,0.6-0.6l-1.9-4.1c3.2-3.9,0.7-9.9-4.3-10.2V7.5H34.7L34.7,7.5z M34.6,28c-0.3-0.1-0.6,0-0.7,0.3l-0.3,1.5
		l-1.1-2.4c0.9-0.3,1.7-0.7,2.3-1.3l1.2,2.5L34.6,28z M34.6,24.9c-2.2,2.5-6.1,2.2-8-0.5c-2.4-3.5-0.2-8,3.6-8.4
		C35,15.6,37.9,21.4,34.6,24.9L34.6,24.9z M30.2,34.1c0,0.8-0.7,1.5-1.5,1.5c-0.8,0-1.5-0.7-1.5-1.5v-1.2c0-0.3-0.2-0.5-0.5-0.5H7.6
		V6.4c0-1.1,0.9-2,2-2h21.2c-0.7,0.9-0.5,0.5-0.5,10.7c-2.2,0.2-4,1.6-5,3.5H10.8v1h14.1c-0.4,1.2-0.3,2.5,0,3.7H10.8v1h14.5
		c0.1,0.2,0.2,0.4,0.4,0.6l-1.5,3.1H10.8v1h12.9l-0.3,0.5c-0.2,0.4,0.2,0.8,0.6,0.7l2.1-0.9l0.5,2.2c0.1,0.4,0.7,0.5,0.9,0.1l1.8-4
		c0.3,0.1,0.5,0.1,0.8,0.1L30.2,34.1L30.2,34.1z M3.5,33.4h22.7c0,0.8-0.1,1.4,0.5,2.2H5.3c-1,0-1.8-0.8-1.8-1.9L3.5,33.4L3.5,33.4z
		 M34.2,6.6h-3V5.9c0-0.9,0.7-1.6,1.5-1.6c0.8,0,1.5,0.7,1.5,1.6L34.2,6.6L34.2,6.6z M26.3,28l-1.4,0.6l1.4-2.9
		c0.6,0.7,1.4,1.2,2.2,1.5l-1.2,2.6l-0.3-1.4C26.9,28,26.5,27.8,26.3,28L26.3,28z"/>
	
		<rect x="10.8" y="9.3" style="clip-path:url(#SVGID_00000030478733706064287240000012274323479107659140_);fill:#C3C3CC;" width="15.7" height="1"/>
	
		<rect x="10.8" y="9.3" style="clip-path:url(#SVGID_00000030478733706064287240000012274323479107659140_);fill:none;stroke:#C3C3CC;stroke-width:0.8;stroke-miterlimit:10;" width="15.7" height="1"/>
	
		<rect x="10.8" y="13.9" style="clip-path:url(#SVGID_00000030478733706064287240000012274323479107659140_);fill:#C3C3CC;" width="15.7" height="1"/>
	
		<rect x="10.8" y="13.9" style="clip-path:url(#SVGID_00000030478733706064287240000012274323479107659140_);fill:none;stroke:#C3C3CC;stroke-width:0.8;stroke-miterlimit:10;" width="15.7" height="1"/>
	<path style="clip-path:url(#SVGID_00000030478733706064287240000012274323479107659140_);fill:#C3C3CC;" d="M31.2,17.3
		c-2.4-0.2-4.4,1.6-4.4,4s2.1,4.3,4.4,4.1c2-0.2,3.6-2,3.6-4.1S33.2,17.5,31.2,17.3 M31.2,24.4c-1.8,0.3-3.5-1.2-3.5-3.1
		c0-1.9,1.6-3.3,3.5-3.1c1.5,0.2,2.6,1.5,2.6,3.1C33.8,22.9,32.7,24.2,31.2,24.4"/>
	
		<path style="clip-path:url(#SVGID_00000030478733706064287240000012274323479107659140_);fill:none;stroke:#C3C3CC;stroke-width:0.8;stroke-miterlimit:10;" d="
		M31.2,17.3c-2.4-0.2-4.4,1.6-4.4,4s2.1,4.3,4.4,4.1c2-0.2,3.6-2,3.6-4.1S33.2,17.5,31.2,17.3z M31.2,24.4c-1.8,0.3-3.5-1.2-3.5-3.1
		c0-1.9,1.6-3.3,3.5-3.1c1.5,0.2,2.6,1.5,2.6,3.1C33.8,22.9,32.7,24.2,31.2,24.4z"/>
</g>
</svg>
