<?xml version="1.0" encoding="utf-8"?>
<!-- Generator: Adobe Illustrator 25.4.1, SVG Export Plug-In . SVG Version: 6.00 Build 0)  -->
<svg version="1.1" id="Layer_1" xmlns="http://www.w3.org/2000/svg" xmlns:xlink="http://www.w3.org/1999/xlink" x="0px" y="0px"
	 viewBox="0 0 40 40" style="enable-background:new 0 0 40 40;" xml:space="preserve">
<style type="text/css">
	.st0{clip-path:url(#SVGID_00000087389668371653645280000015585736895711479438_);fill:#C3C3CC;}
</style>
<g>
	<defs>
		<rect id="SVGID_1_" x="1" y="11.1" width="38" height="17.8"/>
	</defs>
	<clipPath id="SVGID_00000103943893974133974030000008521544620905425575_">
		<use xlink:href="#SVGID_1_"  style="overflow:visible;"/>
	</clipPath>
	<path style="clip-path:url(#SVGID_00000103943893974133974030000008521544620905425575_);fill:#C3C3CC;" d="M30.1,11.1H9.9
		C5,11.1,1,15.1,1,20s4,8.9,8.9,8.9h20.2c4.9,0,8.9-4,8.9-8.9S35,11.1,30.1,11.1 M30.1,26.3H9.9c-3.5,0-6.3-2.8-6.3-6.3
		s2.8-6.3,6.3-6.3h20.2c3.5,0,6.3,2.8,6.3,6.3S33.6,26.3,30.1,26.3 M31.4,20c0,0.7-0.6,1.3-1.3,1.3H9.9c-0.7,0-1.3-0.6-1.3-1.3
		c0-0.7,0.6-1.3,1.3-1.3h20.2C30.8,18.7,31.4,19.3,31.4,20"/>
</g>
</svg>
