<?xml version="1.0" encoding="utf-8"?>
<!-- Generator: Adobe Illustrator 25.4.1, SVG Export Plug-In . SVG Version: 6.00 Build 0)  -->
<svg version="1.1" id="Layer_1" xmlns="http://www.w3.org/2000/svg" xmlns:xlink="http://www.w3.org/1999/xlink" x="0px" y="0px"
	 viewBox="0 0 40 40" style="enable-background:new 0 0 40 40;" xml:space="preserve">
<style type="text/css">
	.st0{fill:url(#SVGID_1_);}
	.st1{fill:url(#SVGID_00000112605849389236181440000011669243631825500053_);}
	.st2{fill-rule:evenodd;clip-rule:evenodd;fill:url(#SVGID_00000062887909548257993120000008968434794046802355_);}
	.st3{fill:url(#SVGID_00000009548960260399895220000018287935500804355221_);}
	.st4{fill:url(#SVGID_00000054236976877892647900000014881317503241173160_);}
	.st5{fill:url(#SVGID_00000024721727499966805430000010495617023772027323_);}
	.st6{fill:url(#SVGID_00000172404999065343834010000002627131464582334889_);}
	.st7{fill:url(#SVGID_00000033345014695714901910000012853376351745581188_);}
</style>
<g>
	<linearGradient id="SVGID_1_" gradientUnits="userSpaceOnUse" x1="1" y1="26.0677" x2="6.9487" y2="26.0677">
		<stop  offset="9.497701e-03" style="stop-color:#71EACA"/>
		<stop  offset="1" style="stop-color:#397AF4"/>
	</linearGradient>
	<path class="st0" d="M6.4,20.8c-1.4,1.3-2.3,3.2-2.3,5.2c0,2.1,0.9,3.9,2.3,5.2c0.6,0.6,0.7,1.6,0.1,2.3c-0.6,0.6-1.6,0.7-2.3,0.1
		C2.3,31.7,1,29,1,26.1c0-3,1.3-5.7,3.3-7.5c0.6-0.6,1.7-0.6,2.3,0.1C7.1,19.2,7.1,20.2,6.4,20.8"/>
	
		<linearGradient id="SVGID_00000150808612944815585320000006803407151404298910_" gradientUnits="userSpaceOnUse" x1="6.4294" y1="26.0676" x2="10.5521" y2="26.0676">
		<stop  offset="9.497701e-03" style="stop-color:#71EACA"/>
		<stop  offset="1" style="stop-color:#397AF4"/>
	</linearGradient>
	<path style="fill:url(#SVGID_00000150808612944815585320000006803407151404298910_);" d="M9.6,26.1c0-0.6,0.2-1.1,0.6-1.5
		c0.6-0.7,0.5-1.7-0.2-2.2c-0.7-0.6-1.7-0.5-2.2,0.2c-0.8,1-1.3,2.2-1.3,3.6s0.5,2.6,1.3,3.6c0.6,0.7,1.6,0.8,2.2,0.2
		c0.7-0.6,0.8-1.6,0.2-2.2C9.8,27.2,9.6,26.7,9.6,26.1"/>
	
		<linearGradient id="SVGID_00000160172770325342607900000005550064320216120496_" gradientUnits="userSpaceOnUse" x1="12.1773" y1="26.387" x2="28.1437" y2="26.387">
		<stop  offset="9.497701e-03" style="stop-color:#71EACA"/>
		<stop  offset="1" style="stop-color:#397AF4"/>
	</linearGradient>
	<path style="fill-rule:evenodd;clip-rule:evenodd;fill:url(#SVGID_00000160172770325342607900000005550064320216120496_);" d="
		M17,18.4c-2.6,0-4.8,2.1-4.8,4.8v6.4c0,2.6,2.1,4.8,4.8,4.8h6.4c2.6,0,4.8-2.1,4.8-4.8v-6.4c0-2.6-2.1-4.8-4.8-4.8H17z M20.2,29.6
		c-1.8,0-3.2-1.4-3.2-3.2s1.4-3.2,3.2-3.2c1.8,0,3.2,1.4,3.2,3.2S21.9,29.6,20.2,29.6"/>
	
		<linearGradient id="SVGID_00000008864866791662788470000010020819021093084835_" gradientUnits="userSpaceOnUse" x1="18.8832" y1="14.8912" x2="21.4378" y2="14.8912">
		<stop  offset="9.497701e-03" style="stop-color:#71EACA"/>
		<stop  offset="1" style="stop-color:#397AF4"/>
	</linearGradient>
	<path style="fill:url(#SVGID_00000008864866791662788470000010020819021093084835_);" d="M20.2,16.2c0.7,0,1.3-0.6,1.3-1.3
		c0-0.7-0.6-1.3-1.3-1.3c-0.7,0-1.3,0.6-1.3,1.3C18.9,15.6,19.5,16.2,20.2,16.2"/>
	
		<linearGradient id="SVGID_00000173149459599054068950000013871972823854206384_" gradientUnits="userSpaceOnUse" x1="16.0091" y1="11.524" x2="24.3118" y2="11.524">
		<stop  offset="9.497701e-03" style="stop-color:#71EACA"/>
		<stop  offset="1" style="stop-color:#397AF4"/>
	</linearGradient>
	<path style="fill:url(#SVGID_00000173149459599054068950000013871972823854206384_);" d="M20.2,12.7c-0.6,0-1.1,0.2-1.5,0.6
		C18,13.8,17,13.7,16.4,13c-0.6-0.7-0.5-1.7,0.2-2.2c1-0.8,2.2-1.3,3.6-1.3c1.4,0,2.6,0.5,3.6,1.3c0.7,0.6,0.8,1.6,0.2,2.2
		c-0.6,0.7-1.6,0.8-2.2,0.2C21.3,12.9,20.7,12.7,20.2,12.7"/>
	
		<linearGradient id="SVGID_00000011025435131356241770000011541691285263904395_" gradientUnits="userSpaceOnUse" x1="12.1777" y1="8.6042" x2="28.1436" y2="8.6042">
		<stop  offset="9.497701e-03" style="stop-color:#71EACA"/>
		<stop  offset="1" style="stop-color:#397AF4"/>
	</linearGradient>
	<path style="fill:url(#SVGID_00000011025435131356241770000011541691285263904395_);" d="M14.9,11.1c1.3-1.4,3.2-2.3,5.2-2.3
		c2.1,0,3.9,0.9,5.2,2.3c0.6,0.6,1.6,0.7,2.3,0.1c0.6-0.6,0.7-1.6,0.1-2.3c-1.9-2-4.6-3.3-7.5-3.3c-3,0-5.7,1.3-7.5,3.3
		c-0.6,0.6-0.6,1.7,0.1,2.3C13.3,11.7,14.3,11.7,14.9,11.1"/>
	
		<linearGradient id="SVGID_00000142857079292733703860000004356728299758007424_" gradientUnits="userSpaceOnUse" x1="29.4495" y1="26.0676" x2="33.5722" y2="26.0676">
		<stop  offset="9.497701e-03" style="stop-color:#71EACA"/>
		<stop  offset="1" style="stop-color:#397AF4"/>
	</linearGradient>
	<path style="fill:url(#SVGID_00000142857079292733703860000004356728299758007424_);" d="M30.4,26.1c0-0.6-0.2-1.1-0.6-1.5
		c-0.6-0.7-0.5-1.7,0.2-2.2c0.7-0.6,1.7-0.5,2.2,0.2c0.8,1,1.3,2.2,1.3,3.6s-0.5,2.6-1.3,3.6c-0.6,0.7-1.6,0.8-2.2,0.2
		c-0.7-0.6-0.8-1.6-0.2-2.2C30.2,27.2,30.4,26.7,30.4,26.1"/>
	
		<linearGradient id="SVGID_00000093883854562129824780000017453109338991286173_" gradientUnits="userSpaceOnUse" x1="33.0529" y1="26.0677" x2="39" y2="26.0677">
		<stop  offset="9.497701e-03" style="stop-color:#71EACA"/>
		<stop  offset="1" style="stop-color:#397AF4"/>
	</linearGradient>
	<path style="fill:url(#SVGID_00000093883854562129824780000017453109338991286173_);" d="M33.6,20.8c1.4,1.3,2.3,3.2,2.3,5.2
		c0,2.1-0.9,3.9-2.3,5.2c-0.6,0.6-0.7,1.6-0.1,2.3c0.6,0.6,1.6,0.7,2.3,0.1c2-1.9,3.3-4.6,3.3-7.5c0-3-1.3-5.7-3.3-7.5
		c-0.6-0.6-1.7-0.6-2.3,0.1C32.9,19.2,32.9,20.2,33.6,20.8"/>
</g>
</svg>
