<?xml version="1.0" encoding="utf-8"?>
<!-- Generator: Adobe Illustrator 25.4.1, SVG Export Plug-In . SVG Version: 6.00 Build 0)  -->
<svg version="1.1" id="Layer_1" xmlns="http://www.w3.org/2000/svg" xmlns:xlink="http://www.w3.org/1999/xlink" x="0px" y="0px"
	 viewBox="0 0 40 40" style="enable-background:new 0 0 40 40;" xml:space="preserve">
<style type="text/css">
	.st0{clip-path:url(#SVGID_00000016063343710196881810000015566762959198296225_);fill:#C3C3CC;}
	
		.st1{clip-path:url(#SVGID_00000016063343710196881810000015566762959198296225_);fill:none;stroke:#C3C3CC;stroke-width:0.4651;stroke-miterlimit:10;}
</style>
<g>
	<defs>
		<rect id="SVGID_1_" x="2" y="7.6" width="36" height="24.9"/>
	</defs>
	<clipPath id="SVGID_00000150813383713182969080000006227067864278779574_">
		<use xlink:href="#SVGID_1_"  style="overflow:visible;"/>
	</clipPath>
	<path style="clip-path:url(#SVGID_00000150813383713182969080000006227067864278779574_);fill:#C3C3CC;" d="M2.2,28.6
		c0,2,1.6,3.6,3.6,3.6h28.3c2,0,3.6-1.6,3.6-3.6V11.4c0-2-1.6-3.6-3.6-3.6H5.9c-2,0-3.6,1.6-3.6,3.6V28.6z M4,28.6V11.4
		c0-1,0.8-1.8,1.8-1.8h0.9v20.8H5.9C4.8,30.4,4,29.6,4,28.6 M8.6,30.4V9.6h21.1v20.8H8.6z M11.6,20.1L11.6,20.1c0,0.1,0,0.2,0.1,0.3
		l3.2,6.3c0.2,0.3,0.5,0.5,0.8,0.5h7.2c0.3,0,0.7-0.2,0.8-0.5l3.2-6.3c0.1-0.3,0.1-0.6,0-0.8l-3.2-6.3c-0.2-0.3-0.5-0.5-0.8-0.5
		h-7.2c-0.3,0-0.7,0.2-0.8,0.5l-3.2,6.3C11.6,19.7,11.5,19.9,11.6,20.1L11.6,20.1z M13.5,20l2.2-4.3l2.2,4.3l-2.2,4.3L13.5,20z
		 M17.1,25.4l2.3-4.5h5.2l-2.3,4.5H17.1z M17.1,14.6h5.2l2.3,4.5h-5.2L17.1,14.6z M31.4,30.4V9.6h2.7c1,0,1.8,0.8,1.8,1.8v17.2
		c0,1-0.8,1.8-1.8,1.8H31.4z M32.8,23.2c0,0.5,0.4,0.9,0.9,0.9c0.2,0,0.5-0.1,0.6-0.3c0.2-0.2,0.3-0.4,0.3-0.6v-6.3
		c0-0.2-0.1-0.5-0.3-0.6c-0.2-0.2-0.4-0.3-0.6-0.3c-0.2,0-0.5,0.1-0.6,0.3c-0.2,0.2-0.3,0.4-0.3,0.6V23.2z"/>
	
		<path style="clip-path:url(#SVGID_00000150813383713182969080000006227067864278779574_);fill:none;stroke:#C3C3CC;stroke-width:0.4651;stroke-miterlimit:10;" d="
		M2.2,28.6c0,2,1.6,3.6,3.6,3.6h28.3c2,0,3.6-1.6,3.6-3.6V11.4c0-2-1.6-3.6-3.6-3.6H5.9c-2,0-3.6,1.6-3.6,3.6V28.6z M4,28.6V11.4
		c0-1,0.8-1.8,1.8-1.8h0.9v20.8H5.9C4.8,30.4,4,29.6,4,28.6z M8.6,30.4V9.6h21.1v20.8H8.6z M11.6,20.1L11.6,20.1
		c0,0.1,0,0.2,0.1,0.3l3.2,6.3c0.2,0.3,0.5,0.5,0.8,0.5h7.2c0.3,0,0.7-0.2,0.8-0.5l3.2-6.3c0.1-0.3,0.1-0.6,0-0.8l-3.2-6.3
		c-0.2-0.3-0.5-0.5-0.8-0.5h-7.2c-0.3,0-0.7,0.2-0.8,0.5l-3.2,6.3C11.6,19.7,11.5,19.9,11.6,20.1L11.6,20.1z M13.5,20l2.2-4.3
		l2.2,4.3l-2.2,4.3L13.5,20z M17.1,25.4l2.3-4.5h5.2l-2.3,4.5H17.1z M17.1,14.6h5.2l2.3,4.5h-5.2L17.1,14.6z M31.4,30.4V9.6h2.7
		c1,0,1.8,0.8,1.8,1.8v17.2c0,1-0.8,1.8-1.8,1.8H31.4z M32.8,23.2c0,0.5,0.4,0.9,0.9,0.9c0.2,0,0.5-0.1,0.6-0.3
		c0.2-0.2,0.3-0.4,0.3-0.6v-6.3c0-0.2-0.1-0.5-0.3-0.6c-0.2-0.2-0.4-0.3-0.6-0.3c-0.2,0-0.5,0.1-0.6,0.3c-0.2,0.2-0.3,0.4-0.3,0.6
		V23.2z"/>
</g>
</svg>
