<?xml version="1.0" encoding="utf-8"?>
<!-- Generator: Adobe Illustrator 25.4.1, SVG Export Plug-In . SVG Version: 6.00 Build 0)  -->
<svg version="1.1" id="Layer_1" xmlns="http://www.w3.org/2000/svg" xmlns:xlink="http://www.w3.org/1999/xlink" x="0px" y="0px"
	 viewBox="0 0 40 40" style="enable-background:new 0 0 40 40;" xml:space="preserve">
<style type="text/css">
	.st0{fill:none;stroke:#C3C3CC;stroke-width:2;stroke-miterlimit:10;}
</style>
<g>
	<path class="st0" d="M23,10.7l5.2-5.2c0.2-0.2,0.5-0.3,0.7-0.1l5.9,5.9c0.2,0.1,0.1,0.4-0.1,0.7L29.4,17"/>
	<path class="st0" d="M18.9,27.6l-6.5-6.5c-0.2-0.2-0.1-0.7,0.2-1l9.3-9.3c0.3-0.3,0.8-0.4,1-0.2l6.6,6.5c0.2,0.2,0.1,0.7-0.2,1
		l-9.3,9.3C19.6,27.8,19.1,27.9,18.9,27.6L18.9,27.6z"/>
	<path class="st0" d="M17,25.7l-3.4,3.4c-0.2,0.2-0.5,0.3-0.7,0.1l-2.1-2.1c-0.2-0.1-0.1-0.4,0.1-0.7l3.4-3.4"/>
	<path class="st0" d="M26.9,11l-1.3-1.3c-0.1-0.1,0-0.2,0.1-0.3l1.5-1.5c0.1-0.1,0.2-0.1,0.3-0.1l1.3,1.3c0.1,0.1,0,0.2-0.1,0.3
		L27.2,11C27.1,11.1,27,11.1,26.9,11z"/>
	<path class="st0" d="M28.9,13l1.3,1.3c0.1,0.1,0.2,0,0.3-0.1l1.5-1.5c0.1-0.1,0.1-0.2,0.1-0.3l-1.3-1.3c-0.1-0.1-0.2,0-0.3,0.1
		l-1.5,1.5C28.8,12.8,28.8,12.9,28.9,13z"/>
	<path class="st0" d="M12.7,29l-5.4,5.4c-0.3,0.3-0.8,0.4-1,0.2l-1-1c-0.2-0.2-0.1-0.7,0.2-1l5.4-5.4"/>
</g>
</svg>
