<?xml version="1.0" encoding="utf-8"?>
<!-- Generator: Adobe Illustrator 25.4.1, SVG Export Plug-In . SVG Version: 6.00 Build 0)  -->
<svg version="1.1" id="Layer_1" xmlns="http://www.w3.org/2000/svg" xmlns:xlink="http://www.w3.org/1999/xlink" x="0px" y="0px"
	 viewBox="0 0 40 40" style="enable-background:new 0 0 40 40;" xml:space="preserve">
<style type="text/css">
	.st0{fill:#C3C3CC;stroke:#C3C3CC;stroke-width:0.75;stroke-miterlimit:10;}
</style>
<g>
	<path class="st0" d="M7.3,25.9l1.1,0.5l0.6-1.3l-3.3-1.5l-1.5,3.3l1.3,0.6l0.5-1.1c1.8,3.9,5.1,6.9,9.2,8.3l0.4-1.4
		C11.9,32,8.9,29.3,7.3,25.9z"/>
	<path class="st0" d="M12.4,5.4l1.1,0.4C9.6,7.6,6.5,11,5.2,15.2l1.4,0.4c1.2-3.8,3.9-6.9,7.5-8.5l-0.5,1.2l1.3,0.5l1.4-3.4L12.9,4
		L12.4,5.4z"/>
	<path class="st0" d="M7.9,20c0-1.5-1.2-2.7-2.7-2.7S2.5,18.5,2.5,20c0,1.5,1.2,2.7,2.7,2.7S7.9,21.5,7.9,20z M3.2,20
		c0-1.1,0.9-2,2-2s2,0.9,2,2c0,1.1-0.9,2-2,2S3.2,21.1,3.2,20z"/>
	<path class="st0" d="M20,2.6c-1.5,0-2.7,1.2-2.7,2.7S18.5,8,20,8c1.5,0,2.7-1.2,2.7-2.7S21.5,2.6,20,2.6z M20,7.3c-1.1,0-2-0.9-2-2
		s0.9-2,2-2c1.1,0,2,0.9,2,2S21.1,7.3,20,7.3z"/>
	<path class="st0" d="M20,32c-1.5,0-2.7,1.2-2.7,2.7s1.2,2.7,2.7,2.7c1.5,0,2.7-1.2,2.7-2.7S21.5,32,20,32z M20,36.7
		c-1.1,0-2-0.9-2-2c0-1.1,0.9-2,2-2c1.1,0,2,0.9,2,2C22,35.8,21.1,36.7,20,36.7z"/>
	<path class="st0" d="M25.9,32.9l0.5-1.2l-1.3-0.5l-1.4,3.4l3.4,1.4l0.5-1.3l-1.1-0.4c3.9-1.8,6.9-5.2,8.3-9.4l-1.4-0.4
		C32.2,28.1,29.5,31.2,25.9,32.9z"/>
	<path class="st0" d="M32.8,14.1l-1.1-0.5l-0.6,1.3l3.3,1.5l1.5-3.3l-1.3-0.6l-0.5,1.1c-1.8-3.9-5.1-6.9-9.2-8.3l-0.4,1.4
		C28.1,7.9,31.1,10.6,32.8,14.1z"/>
	<path class="st0" d="M34.8,17.3c-1.5,0-2.7,1.2-2.7,2.7c0,1.5,1.2,2.7,2.7,2.7s2.7-1.2,2.7-2.7C37.5,18.5,36.3,17.3,34.8,17.3z
		 M34.8,21.9c-1.1,0-2-0.9-2-2c0-1.1,0.9-2,2-2c1.1,0,2,0.9,2,2C36.8,21,35.9,21.9,34.8,21.9z"/>
</g>
</svg>
