<?xml version="1.0" encoding="utf-8"?>
<!-- Generator: Adobe Illustrator 25.4.1, SVG Export Plug-In . SVG Version: 6.00 Build 0)  -->
<svg version="1.1" id="Layer_1" xmlns="http://www.w3.org/2000/svg" xmlns:xlink="http://www.w3.org/1999/xlink" x="0px" y="0px"
	 viewBox="0 0 40 40" style="enable-background:new 0 0 40 40;" xml:space="preserve">
<style type="text/css">
	.st0{fill:#C3C3CC;stroke:#C3C3CC;stroke-width:0.75;stroke-miterlimit:10;}
</style>
<path class="st0" d="M32.3,9.3l-5.7-5.7c-0.7-0.7-1.6-1.1-2.5-1.1H10.6c-2.1,0-3.9,1.7-3.9,3.9v27.2c0,2.1,1.7,3.9,3.9,3.9h18.8
	c2.1,0,3.9-1.7,3.9-3.9l0-21.8C33.3,10.9,33,10,32.3,9.3L32.3,9.3z M32.1,33.6c0,1.5-1.2,2.7-2.7,2.7H10.6c-1.5,0-2.7-1.2-2.7-2.7
	l0-27.2c0-1.5,1.2-2.7,2.7-2.7H24c0.7,0,1.2,0.2,1.7,0.7l5.7,5.7c0.5,0.5,0.7,1,0.7,1.7L32.1,33.6z M25.6,11.5H14.4
	c-1.8,0-3.2,1.4-3.2,3.2v15.4c0,1.8,1.4,3.2,3.2,3.2h11.1c1.8,0,3.2-1.4,3.2-3.2V14.7C28.8,12.9,27.3,11.5,25.6,11.5z M27.6,14.7
	v4.9c-0.7-0.6-1.6-1-2.6-1h-0.3v-5.9h0.9C26.7,12.7,27.6,13.6,27.6,14.7L27.6,14.7z M20.6,18.6v-5.9h2.9v5.9H20.6z M16.5,18.6v-5.9
	h2.9v5.9H16.5z M12.4,14.7c0-1.1,0.9-2,2-2h0.9v6.5c0,0.3,0.3,0.6,0.6,0.6l9.1,0c1.4,0,2.6,1.2,2.6,2.6c0,1.4-1.2,2.6-2.6,2.6l-10,0
	c-1.4,0-2.6-1.2-2.6-2.6L12.4,14.7z M19.4,26.2v5.9h-2.9v-5.9H19.4z M20.6,26.2h2.9v5.9h-2.9L20.6,26.2z M12.4,30.1v-4.9
	c0.7,0.6,1.6,1,2.6,1h0.3v5.9h-0.9C13.3,32.1,12.4,31.2,12.4,30.1L12.4,30.1z M25.6,32.1h-0.9v-5.9H25c1,0,1.9-0.4,2.6-1v4.9
	C27.6,31.2,26.7,32.1,25.6,32.1L25.6,32.1z"/>
</svg>
