<?xml version="1.0" encoding="utf-8"?>
<!-- Generator: Adobe Illustrator 25.4.1, SVG Export Plug-In . SVG Version: 6.00 Build 0)  -->
<svg version="1.1" id="Layer_1" xmlns="http://www.w3.org/2000/svg" xmlns:xlink="http://www.w3.org/1999/xlink" x="0px" y="0px"
	 viewBox="0 0 40 40" style="enable-background:new 0 0 40 40;" xml:space="preserve">
<style type="text/css">
	.st0{fill-rule:evenodd;clip-rule:evenodd;fill:#C3C3CC;stroke:#C3C3CC;stroke-width:0.75;stroke-miterlimit:10;}
</style>
<path class="st0" d="M14.6,21.2c-0.3-0.3-0.3-0.8,0-1.1c0.3-0.3,0.8-0.3,1.1,0l2.3,2.3l6.3-6.3c0.3-0.3,0.8-0.3,1.1,0
	c0.3,0.3,0.3,0.8,0,1.1L18.5,24c-0.3,0.3-0.8,0.3-1.1,0L14.6,21.2z M20,9.5c5.8,0,10.5,4.7,10.5,10.5c0,5.8-4.7,10.5-10.5,10.5
	c-5.8,0-10.5-4.7-10.5-10.5C9.5,14.2,14.2,9.5,20,9.5z M26.3,13.7c3.5,3.5,3.5,9.1,0,12.5s-9.1,3.5-12.5,0s-3.5-9.1,0-12.5
	S22.8,10.3,26.3,13.7z M16,5.1c1.9-2.8,6.1-2.8,8,0c3.1-1.5,6.7,0.6,6.9,4c3.4,0.3,5.5,3.8,4,6.9c2.8,1.9,2.8,6.1,0,8
	c1.5,3.1-0.6,6.7-4,6.9c-0.3,3.4-3.8,5.5-6.9,4c-1.9,2.8-6.1,2.8-8,0c-3.1,1.5-6.7-0.6-6.9-4c-3.4-0.3-5.5-3.8-4-6.9
	c-2.8-1.9-2.8-6.1,0-8c-0.7-1.4-0.7-3.1,0.2-4.5h0c0.8-1.4,2.3-2.3,3.8-2.4C9.4,5.7,12.9,3.6,16,5.1L16,5.1z M18.2,5.1
	C19.9,4,22.2,4.7,23,6.5c0.2,0.5,0.8,0.6,1.2,0.3c2.3-1.7,5.5,0.1,5.1,3c-0.1,0.5,0.4,0.9,0.9,0.9c0.6-0.1,1.3,0,1.8,0.3
	c1.8,0.9,2.3,3.2,1.1,4.8c-0.3,0.4-0.2,1,0.4,1.2c0.6,0.3,1,0.7,1.4,1.2c1.1,1.7,0.4,3.9-1.4,4.7c-0.5,0.2-0.6,0.8-0.3,1.2
	c1.7,2.3-0.1,5.5-3,5.1c-0.5-0.1-0.9,0.4-0.9,0.9c0.1,0.6,0,1.3-0.3,1.8c-0.9,1.8-3.2,2.3-4.8,1.1c-0.4-0.3-1-0.2-1.2,0.4
	c-0.3,0.6-0.7,1-1.2,1.4c-1.7,1.1-3.9,0.4-4.7-1.4c-0.2-0.5-0.8-0.6-1.2-0.3c-2.3,1.7-5.4-0.2-5.1-3c0.1-0.5-0.4-0.9-0.9-0.9
	c-0.6,0.1-1.3,0-1.8-0.3c-1.8-0.9-2.3-3.2-1.1-4.8c0.3-0.4,0.2-1-0.4-1.2c-0.6-0.3-1-0.7-1.4-1.2C4,20.1,4.7,17.8,6.5,17
	c0.5-0.2,0.6-0.8,0.3-1.2c-0.8-1-0.9-2.4-0.2-3.5h0c0.7-1.1,1.9-1.7,3.2-1.6c0.5,0.1,0.9-0.4,0.9-0.9c-0.1-0.6,0-1.3,0.3-1.8
	c0.9-1.8,3.2-2.3,4.8-1.1c0.4,0.3,1,0.2,1.2-0.4C17.3,5.9,17.7,5.5,18.2,5.1z"/>
</svg>
