<?xml version="1.0" encoding="utf-8"?>
<!-- Generator: Adobe Illustrator 25.4.1, SVG Export Plug-In . SVG Version: 6.00 Build 0)  -->
<svg version="1.1" id="Layer_1" xmlns="http://www.w3.org/2000/svg" xmlns:xlink="http://www.w3.org/1999/xlink" x="0px" y="0px"
	 viewBox="0 0 40 40" style="enable-background:new 0 0 40 40;" xml:space="preserve">
<style type="text/css">
	.st0{fill:url(#SVGID_1_);}
	.st1{fill:url(#SVGID_00000070106923582550760900000016685995848924024244_);}
	.st2{fill:url(#SVGID_00000024683597498164085680000017261147087365007543_);}
	.st3{fill:url(#SVGID_00000175302648122601559620000009342869014351268748_);}
	.st4{fill:url(#SVGID_00000048484272632676049060000018114201339443419787_);}
	.st5{fill:url(#SVGID_00000129910514480120227450000016704273697624574904_);}
	.st6{fill:url(#SVGID_00000179632722780916913640000000317211707048030082_);}
	.st7{fill:url(#SVGID_00000160154888397749195560000005161855708313638039_);}
</style>
<g>
	<linearGradient id="SVGID_1_" gradientUnits="userSpaceOnUse" x1="9.3459" y1="19.9998" x2="30.6543" y2="19.9998">
		<stop  offset="9.497701e-03" style="stop-color:#71EACA"/>
		<stop  offset="1" style="stop-color:#397AF4"/>
	</linearGradient>
	<path class="st0" d="M30.7,15.7l-1.5,0.9c-0.7,0.4-1.6,0.2-1.9-0.5c-0.4-0.7-0.2-1.6,0.5-1.9c0,0,0,0,0,0l1.5-0.9l-7.7-4.5
		c-0.9-0.5-2.1-0.5-3,0l-7.7,4.5l1.5,0.9c0.7,0.4,0.9,1.3,0.5,1.9c0,0,0,0,0,0c-0.4,0.7-1.3,0.9-1.9,0.5l-1.5-0.9v8.9
		c0,1.1,0.6,2.1,1.5,2.6l7.7,4.5v-1.7c0-0.8,0.6-1.4,1.4-1.4c0.8,0,1.4,0.6,1.4,1.4v1.7l7.7-4.5c0.9-0.5,1.5-1.5,1.5-2.6V15.7z
		 M25.5,23.4L20,26.6l-5.5-3.2V17l5.5-3.2l5.5,3.2V23.4z"/>
	
		<linearGradient id="SVGID_00000095302846608254223070000017573752708568280746_" gradientUnits="userSpaceOnUse" x1="16.8351" y1="20.1767" x2="23.1649" y2="20.1767">
		<stop  offset="9.497701e-03" style="stop-color:#71EACA"/>
		<stop  offset="1" style="stop-color:#397AF4"/>
	</linearGradient>
	<polygon style="fill:url(#SVGID_00000095302846608254223070000017573752708568280746_);" points="16.8,18.3 16.8,22 20,23.8 
		23.2,22 23.2,18.3 20,16.5 	"/>
	
		<linearGradient id="SVGID_00000117671515098953136280000017624716440937760680_" gradientUnits="userSpaceOnUse" x1="15.9486" y1="3.4831" x2="24.0516" y2="3.4831">
		<stop  offset="9.497701e-03" style="stop-color:#71EACA"/>
		<stop  offset="1" style="stop-color:#397AF4"/>
	</linearGradient>
	<path style="fill:url(#SVGID_00000117671515098953136280000017624716440937760680_);" d="M16.9,6h6.3c0.5,0,0.9-0.4,0.9-0.9
		c0-0.2-0.1-0.5-0.3-0.6l-3.1-3.2c-0.4-0.4-0.9-0.4-1.3,0c0,0,0,0,0,0l-3.1,3.2c-0.4,0.4-0.4,0.9,0,1.3C16.4,5.9,16.6,6,16.9,6"/>
	
		<linearGradient id="SVGID_00000067933763561850495150000016424835256657511848_" gradientUnits="userSpaceOnUse" x1="15.9486" y1="36.5169" x2="24.0515" y2="36.5169">
		<stop  offset="9.497701e-03" style="stop-color:#71EACA"/>
		<stop  offset="1" style="stop-color:#397AF4"/>
	</linearGradient>
	<path style="fill:url(#SVGID_00000067933763561850495150000016424835256657511848_);" d="M16.9,39h6.3c0.5,0,0.9-0.4,0.9-0.9
		c0-0.2-0.1-0.5-0.3-0.6l-3.1-3.2c-0.4-0.4-0.9-0.4-1.3,0c0,0,0,0,0,0l-3.1,3.2c-0.4,0.4-0.4,0.9,0,1.3C16.4,38.9,16.6,39,16.9,39"
		/>
	
		<linearGradient id="SVGID_00000173161423173457302460000013114097783955593109_" gradientUnits="userSpaceOnUse" x1="3.4241" y1="12.5307" x2="9.5411" y2="12.5307">
		<stop  offset="9.497701e-03" style="stop-color:#71EACA"/>
		<stop  offset="1" style="stop-color:#397AF4"/>
	</linearGradient>
	<path style="fill:url(#SVGID_00000173161423173457302460000013114097783955593109_);" d="M8.3,9.6C8.2,9.1,7.7,8.8,7.2,8.9
		C7,9,6.8,9.1,6.7,9.4l-3.1,5.5c-0.2,0.4-0.1,1,0.3,1.2c0.2,0.1,0.5,0.2,0.7,0.1L8.9,15c0.5-0.1,0.8-0.6,0.6-1.1c0,0,0,0,0,0
		L8.3,9.6z"/>
	
		<linearGradient id="SVGID_00000082346830383838694390000002382306394746588349_" gradientUnits="userSpaceOnUse" x1="30.4589" y1="27.469" x2="36.5759" y2="27.469">
		<stop  offset="9.497701e-03" style="stop-color:#71EACA"/>
		<stop  offset="1" style="stop-color:#397AF4"/>
	</linearGradient>
	<path style="fill:url(#SVGID_00000082346830383838694390000002382306394746588349_);" d="M35.4,24.5c-0.1-0.5-0.6-0.8-1.1-0.6
		c-0.2,0.1-0.4,0.2-0.5,0.4l-3.1,5.5c-0.2,0.4-0.1,1,0.3,1.2c0.2,0.1,0.5,0.2,0.7,0.1l4.3-1.1c0.5-0.1,0.8-0.6,0.6-1.1c0,0,0,0,0,0
		L35.4,24.5z"/>
	
		<linearGradient id="SVGID_00000014600191166505478980000009565674873617237943_" gradientUnits="userSpaceOnUse" x1="30.459" y1="12.5306" x2="36.576" y2="12.5306">
		<stop  offset="9.497701e-03" style="stop-color:#71EACA"/>
		<stop  offset="1" style="stop-color:#397AF4"/>
	</linearGradient>
	<path style="fill:url(#SVGID_00000014600191166505478980000009565674873617237943_);" d="M33.3,9.4c-0.2-0.4-0.8-0.6-1.2-0.3
		c-0.2,0.1-0.4,0.3-0.4,0.5l-1.2,4.3c-0.1,0.5,0.2,1,0.6,1.1c0,0,0,0,0,0l4.3,1.1c0.5,0.1,1-0.2,1.1-0.6c0.1-0.2,0-0.5-0.1-0.7
		L33.3,9.4z"/>
	
		<linearGradient id="SVGID_00000047753300529337863120000006743549804991569031_" gradientUnits="userSpaceOnUse" x1="3.4241" y1="27.4693" x2="9.541" y2="27.4693">
		<stop  offset="9.497701e-03" style="stop-color:#71EACA"/>
		<stop  offset="1" style="stop-color:#397AF4"/>
	</linearGradient>
	<path style="fill:url(#SVGID_00000047753300529337863120000006743549804991569031_);" d="M6.3,24.3C6,23.9,5.5,23.7,5,24
		c-0.2,0.1-0.4,0.3-0.4,0.5l-1.2,4.3c-0.1,0.5,0.2,1,0.6,1.1c0,0,0,0,0,0l4.3,1.1c0.5,0.1,1-0.2,1.1-0.6c0.1-0.2,0-0.5-0.1-0.7
		L6.3,24.3z"/>
</g>
</svg>
