<?xml version="1.0" encoding="utf-8"?>
<!-- Generator: Adobe Illustrator 25.4.1, SVG Export Plug-In . SVG Version: 6.00 Build 0)  -->
<svg version="1.1" id="Layer_1" xmlns="http://www.w3.org/2000/svg" xmlns:xlink="http://www.w3.org/1999/xlink" x="0px" y="0px"
	 viewBox="0 0 80 80" style="enable-background:new 0 0 80 80;" xml:space="preserve">
<style type="text/css">
	.st0{opacity:0.75;fill:url(#__00000170992207892449246340000006747681483823951491_);}
	.st1{opacity:0.76;}
	.st2{fill:#FFFFFF;}
</style>
<linearGradient id="__00000099624629298279481660000001968591728092752811_" gradientUnits="userSpaceOnUse" x1="40" y1="6.6085" x2="40" y2="73.3915">
	<stop  offset="0.1927" style="stop-color:#71EACA"/>
	<stop  offset="1" style="stop-color:#397AF4"/>
</linearGradient>
<path id="__00000132082426057554494140000007294704526686591882_" style="opacity:0.75;fill:url(#__00000099624629298279481660000001968591728092752811_);" d="
	M73.4,33.7H46.9V6.6H33.1v27.1H6.6v12.6h26.5v27.1h13.9V46.3h26.5V33.7z"/>
<g id="__00000078729915610175009930000015676649534805580937_">
	<g class="st1">
		<path class="st2" d="M46.9,6.6v27.1h26.5v12.6H46.9v27.1H33.1V46.3H6.6V33.7h26.5V6.6H46.9 M46.9,3.6H33.1c-1.7,0-3,1.3-3,3v24.1
			H6.6c-1.7,0-3,1.3-3,3v12.6c0,1.7,1.3,3,3,3h23.5v24.1c0,1.7,1.3,3,3,3h13.9c1.7,0,3-1.3,3-3V49.3h23.5c1.7,0,3-1.3,3-3V33.7
			c0-1.7-1.3-3-3-3H49.9V6.6C49.9,5,48.6,3.6,46.9,3.6L46.9,3.6z"/>
	</g>
</g>
</svg>
