<?xml version="1.0" encoding="utf-8"?>
<!-- Generator: Adobe Illustrator 25.4.1, SVG Export Plug-In . SVG Version: 6.00 Build 0)  -->
<svg version="1.1" id="Layer_1" xmlns="http://www.w3.org/2000/svg" xmlns:xlink="http://www.w3.org/1999/xlink" x="0px" y="0px"
	 viewBox="0 0 40 40" style="enable-background:new 0 0 40 40;" xml:space="preserve">
<style type="text/css">
	.st0{clip-path:url(#SVGID_00000011741776073862684470000008271762281986190255_);fill:#C3C3CC;}
	.st1{clip-path:url(#SVGID_00000178172667040441184300000012593345258196468354_);fill:#C3C3CC;}
	.st2{clip-path:url(#SVGID_00000024719809958230433900000002617359670944277145_);fill:#C3C3CC;}
	
		.st3{clip-path:url(#SVGID_00000156577047815426011650000015049097107457358761_);fill:none;stroke:#C3C3CC;stroke-width:1.0947;stroke-miterlimit:10;}
	.st4{clip-path:url(#SVGID_00000099643753406405950080000004482069871613689734_);fill:#C3C3CC;}
	
		.st5{clip-path:url(#SVGID_00000171688460328604512850000014159439593336033694_);fill:none;stroke:#C3C3CC;stroke-width:1.0947;stroke-miterlimit:10;}
</style>
<g>
	<g>
		<defs>
			<rect id="SVGID_1_" x="5.7" y="1.5" width="28.7" height="37"/>
		</defs>
		<clipPath id="SVGID_00000119085055814025689940000008896406787933589171_">
			<use xlink:href="#SVGID_1_"  style="overflow:visible;"/>
		</clipPath>
		<path style="clip-path:url(#SVGID_00000119085055814025689940000008896406787933589171_);fill:#C3C3CC;" d="M18.5,20.2
			C18.4,20.2,18.4,20.2,18.5,20.2l-3.9-4.3c0,0,0,0,0-0.1l2.2-2.1l0,0h0.1l1.9,2l4.7-4.2c0,0,0,0,0.1,0l2.1,2.3c0,0,0,0.1,0,0.2
			L18.5,20.2L18.5,20.2 M14.6,15.9l3.7,4.2l7-6l-1.9-2.2l-4.7,4.2l-1.5-1.5l-0.3-0.4L14.6,15.9z"/>
	</g>
	<g>
		<defs>
			<rect id="SVGID_00000054978235301810027220000000594360431311009713_" x="5.7" y="1.5" width="28.7" height="37"/>
		</defs>
		<clipPath id="SVGID_00000111168735863859419210000005665609045306502313_">
			<use xlink:href="#SVGID_00000054978235301810027220000000594360431311009713_"  style="overflow:visible;"/>
		</clipPath>
		<path style="clip-path:url(#SVGID_00000111168735863859419210000005665609045306502313_);fill:#C3C3CC;" d="M23.5,11
			c-0.1,0-0.3,0-0.4,0.1L18.7,15l-1.4-1.5c-0.1-0.1-0.3-0.2-0.4-0.2c-0.1,0-0.3,0.1-0.4,0.2l-2.2,2.1c-0.1,0.1-0.2,0.3-0.2,0.4
			c0,0.1,0,0.3,0.1,0.4l3.8,4.3c0.1,0.1,0.2,0.2,0.4,0.2c0.1,0,0.2,0,0.4-0.1l7-6.1c0.2-0.2,0.2-0.7,0-1l-1.9-2.4
			C23.8,11.1,23.6,11,23.5,11 M18.7,16.5c0.1,0,0.3,0,0.4-0.1l4.4-3.8l1.2,1.3l-6.1,5.4l-3.1-3.3l1.3-1.2l1.4,1.5
			C18.4,16.4,18.5,16.5,18.7,16.5"/>
	</g>
	<g>
		<defs>
			<rect id="SVGID_00000041980250405698313660000006853486481934478750_" x="5.7" y="1.5" width="28.7" height="37"/>
		</defs>
		<clipPath id="SVGID_00000111184679270428462640000010522141929887763632_">
			<use xlink:href="#SVGID_00000041980250405698313660000006853486481934478750_"  style="overflow:visible;"/>
		</clipPath>
		<path style="clip-path:url(#SVGID_00000111184679270428462640000010522141929887763632_);fill:#C3C3CC;" d="M25.7,37.8
			c0.2-0.1,0.3-0.3,0.3-0.5v-9c4.6-2.3,7.8-7,7.8-12.4c0-7.7-6.1-13.8-13.8-13.8S6.2,8.3,6.2,15.8c0,5.5,3.2,10.2,7.8,12.4v9.1
			c0,0.2,0.1,0.4,0.3,0.5c0.1,0,0.1,0,0.2,0c0.1,0,0.2,0,0.4-0.1l5-4.4l5,4.4C25.3,38,25.5,38,25.7,37.8 M7.4,15.9
			c0-7,5.7-12.6,12.6-12.6s12.6,5.7,12.6,12.6S26.9,28.4,20,28.4S7.4,22.8,7.4,15.9 M20.4,32.2c-0.2-0.2-0.5-0.2-0.9,0L15.2,36v-7.1
			c1.5,0.5,3.2,0.9,4.8,0.9s3.3-0.3,4.8-0.9V36L20.4,32.2z"/>
	</g>
	<g>
		<defs>
			<rect id="SVGID_00000178885113608640414900000004703487330780158112_" x="5.7" y="1.5" width="28.7" height="37"/>
		</defs>
		<clipPath id="SVGID_00000136373176046788606810000003075221492620842885_">
			<use xlink:href="#SVGID_00000178885113608640414900000004703487330780158112_"  style="overflow:visible;"/>
		</clipPath>
		
			<path style="clip-path:url(#SVGID_00000136373176046788606810000003075221492620842885_);fill:none;stroke:#C3C3CC;stroke-width:1.0947;stroke-miterlimit:10;" d="
			M25.7,37.8c0.2-0.1,0.3-0.3,0.3-0.5v-9c4.6-2.3,7.8-7,7.8-12.4c0-7.7-6.1-13.8-13.8-13.8S6.2,8.3,6.2,15.8
			c0,5.5,3.2,10.2,7.8,12.4v9.1c0,0.2,0.1,0.4,0.3,0.5c0.1,0,0.1,0,0.2,0c0.1,0,0.2,0,0.4-0.1l5-4.4l5,4.4
			C25.3,38,25.5,38,25.7,37.8z M7.4,15.9c0-7,5.7-12.6,12.6-12.6s12.6,5.7,12.6,12.6S26.9,28.4,20,28.4S7.4,22.8,7.4,15.9z
			 M20.4,32.2c-0.2-0.2-0.5-0.2-0.9,0L15.2,36v-7.1c1.5,0.5,3.2,0.9,4.8,0.9s3.3-0.3,4.8-0.9V36L20.4,32.2z"/>
	</g>
	<g>
		<defs>
			<rect id="SVGID_00000012464534051661143420000002288818309938809523_" x="5.7" y="1.5" width="28.7" height="37"/>
		</defs>
		<clipPath id="SVGID_00000151506440351970305470000013298373723728190094_">
			<use xlink:href="#SVGID_00000012464534051661143420000002288818309938809523_"  style="overflow:visible;"/>
		</clipPath>
		<path style="clip-path:url(#SVGID_00000151506440351970305470000013298373723728190094_);fill:#C3C3CC;" d="M30.3,15.9
			c0-5.7-4.6-10.3-10.3-10.3S9.7,10.3,9.7,15.9S14.3,26.2,20,26.2S30.3,21.5,30.3,15.9 M10.9,15.9c0-5,4.1-9.1,9.1-9.1
			c4.9,0,9.1,4.1,9.1,9.1S25,25,20,25S10.9,20.9,10.9,15.9"/>
	</g>
	<g>
		<defs>
			<rect id="SVGID_00000171688995795576942100000015654604991442635660_" x="5.7" y="1.5" width="28.7" height="37"/>
		</defs>
		<clipPath id="SVGID_00000052085971010164764820000008034502988152054447_">
			<use xlink:href="#SVGID_00000171688995795576942100000015654604991442635660_"  style="overflow:visible;"/>
		</clipPath>
		
			<path style="clip-path:url(#SVGID_00000052085971010164764820000008034502988152054447_);fill:none;stroke:#C3C3CC;stroke-width:1.0947;stroke-miterlimit:10;" d="
			M30.3,15.9c0-5.7-4.6-10.3-10.3-10.3S9.7,10.3,9.7,15.9S14.3,26.2,20,26.2S30.3,21.5,30.3,15.9z M10.9,15.9c0-5,4.1-9.1,9.1-9.1
			c4.9,0,9.1,4.1,9.1,9.1S25,25,20,25S10.9,20.9,10.9,15.9z"/>
	</g>
</g>
</svg>
