<?xml version="1.0" encoding="utf-8"?>
<!-- Generator: Adobe Illustrator 25.4.1, SVG Export Plug-In . SVG Version: 6.00 Build 0)  -->
<svg version="1.1" id="Layer_1" xmlns="http://www.w3.org/2000/svg" xmlns:xlink="http://www.w3.org/1999/xlink" x="0px" y="0px"
	 viewBox="0 0 40 40" style="enable-background:new 0 0 40 40;" xml:space="preserve">
<style type="text/css">
	.st0{clip-path:url(#SVGID_00000049907028616460155220000010635711528389388734_);fill:#C3C3CC;}
</style>
<g>
	<defs>
		<rect id="SVGID_1_" x="1" y="5.8" width="38" height="28.4"/>
	</defs>
	<clipPath id="SVGID_00000121994873922106298900000011921494436293106306_">
		<use xlink:href="#SVGID_1_"  style="overflow:visible;"/>
	</clipPath>
	<path style="clip-path:url(#SVGID_00000121994873922106298900000011921494436293106306_);fill:#C3C3CC;" d="M16.8,21h6.3
		c0.6,0,0.9-0.4,0.9-0.9c0-0.6-0.4-0.9-0.9-0.9h-6.3c-0.6,0-0.9,0.4-0.9,0.9C15.9,20.6,16.4,21,16.8,21"/>
	<path style="clip-path:url(#SVGID_00000121994873922106298900000011921494436293106306_);fill:#C3C3CC;" d="M16.8,25.6h6.3
		c0.6,0,0.9-0.4,0.9-0.9c0-0.6-0.4-0.9-0.9-0.9h-6.3c-0.6,0-0.9,0.4-0.9,0.9C15.9,25.2,16.4,25.6,16.8,25.6"/>
	<path style="clip-path:url(#SVGID_00000121994873922106298900000011921494436293106306_);fill:#C3C3CC;" d="M16.8,16.4h6.3
		c0.6,0,0.9-0.4,0.9-0.9c0-0.6-0.4-0.9-0.9-0.9h-6.3c-0.6,0-0.9,0.4-0.9,0.9C15.9,16,16.4,16.4,16.8,16.4"/>
	<path style="clip-path:url(#SVGID_00000121994873922106298900000011921494436293106306_);fill:#C3C3CC;" d="M10.6,25.8L10.6,25.8
		h-0.3c-0.1,0-0.1,0-0.2,0.1H10l-3.7,2.6c-0.6-0.5-1.2-0.7-1.9-0.7c-1.7,0-3.2,1.5-3.2,3.2c0,1.7,1.5,3.2,3.2,3.2
		c1.7,0,3.2-1.5,3.2-3.2c0-0.4-0.1-0.7-0.2-1l3.4-2.4h1.1v1c0,1,0.8,1.8,1.8,1.8h12.4c1,0,1.8-0.8,1.8-1.8v-1h1.2l3.4,2.4
		c-0.1,0.4-0.2,0.6-0.2,1c0,1.7,1.5,3.2,3.2,3.2c1.7,0,3.2-1.5,3.2-3.2c0-1.7-1.5-3.2-3.2-3.2c-0.7,0-1.5,0.3-1.9,0.7l-3.7-2.6H30
		c-0.1,0-0.1-0.1-0.2-0.1h-0.2h-0.1h-1.4V21h2.7c0.5,1.8,2,3.2,4,3.2c2.3,0,4.1-1.8,4.1-4.1s-1.8-4.1-4.1-4.1c-1.9,0-3.6,1.4-4,3.2
		h-2.7v-4.9h1.4c0.1,0,0.2,0,0.3-0.1c0,0,0.1,0,0.1-0.1c0,0,0.1,0,0.1-0.1l3.7-2.6c0.6,0.5,1.2,0.7,1.9,0.7c1.7,0,3.2-1.5,3.2-3.2
		c0-1.7-1.4-3.1-3.1-3.1c-1.7,0-3.2,1.5-3.2,3.2c0,0.4,0.1,0.7,0.2,1l-3.4,2.4h-1.1v-1c0-1-0.8-1.8-1.8-1.8H13.9
		c-1,0-1.8,0.8-1.8,1.8v1h-1.2L7.4,10c0.1-0.4,0.2-0.6,0.2-1c0-1.7-1.5-3.2-3.2-3.2C2.7,5.8,1.2,7.3,1.2,9s1.5,3.2,3.2,3.2
		c0.7,0,1.5-0.3,1.9-0.7l3.7,2.6c0,0,0.1,0,0.1,0.1c0,0,0.1,0,0.1,0.1c0.1,0,0.2,0.1,0.3,0.1h1.4v4.8H9.2c-0.5-1.8-2-3.2-4-3.2
		C2.8,15.9,1,17.7,1,20s1.8,4.1,4.1,4.1c1.9,0,3.6-1.4,4-3.2h2.7v4.9H10.6z M4.4,32.5c-0.7,0-1.4-0.6-1.4-1.4c0-0.7,0.6-1.4,1.4-1.4
		c0.5,0,0.9,0.3,1.1,0.6c0.2,0.2,0.3,0.5,0.3,0.8C5.8,31.8,5.1,32.5,4.4,32.5 M37.1,31.1c0,0.7-0.6,1.4-1.4,1.4
		c-0.7,0-1.4-0.6-1.4-1.4c0-0.3,0.1-0.6,0.3-0.8c0.3-0.4,0.6-0.6,1.1-0.6C36.4,29.7,37.1,30.4,37.1,31.1 M34.8,17.7
		c1.3,0,2.3,1,2.3,2.3c0,1.3-1,2.3-2.3,2.3c-1.3,0-2.3-1-2.3-2.3C32.5,18.8,33.5,17.7,34.8,17.7 M35.7,7.6c0.7,0,1.4,0.6,1.4,1.4
		c0,0.7-0.6,1.4-1.4,1.4c-0.5,0-0.9-0.3-1.1-0.6c-0.2-0.2-0.3-0.5-0.3-0.8C34.3,8.3,35,7.6,35.7,7.6 M3,9c0-0.7,0.6-1.4,1.4-1.4
		c0.7,0,1.4,0.6,1.4,1.4c0,0.3-0.1,0.6-0.3,0.8c-0.3,0.4-0.6,0.6-1.1,0.6C3.7,10.4,3,9.7,3,9 M5.3,22.3C4,22.3,3,21.3,3,20
		c0-1.3,1-2.3,2.3-2.3c1.3,0,2.3,1,2.3,2.3C7.6,21.3,6.6,22.3,5.3,22.3 M26.2,11.4C26.2,11.4,26.3,11.4,26.2,11.4v17.3H13.8V11.4
		H26.2z"/>
</g>
</svg>
