<?xml version="1.0" encoding="utf-8"?>
<!-- Generator: Adobe Illustrator 25.4.1, SVG Export Plug-In . SVG Version: 6.00 Build 0)  -->
<svg version="1.1" id="Layer_1" xmlns="http://www.w3.org/2000/svg" xmlns:xlink="http://www.w3.org/1999/xlink" x="0px" y="0px"
	 viewBox="0 0 40 40" style="enable-background:new 0 0 40 40;" xml:space="preserve">
<style type="text/css">
	.st0{clip-path:url(#SVGID_00000178919346425031676070000014441333233201271464_);fill:#C3C3CC;}
</style>
<g>
	<defs>
		<rect id="SVGID_1_" x="1.1" y="1.1" width="37.9" height="37.9"/>
	</defs>
	<clipPath id="SVGID_00000102537652516288205990000003645043822046329221_">
		<use xlink:href="#SVGID_1_"  style="overflow:visible;"/>
	</clipPath>
	<path style="clip-path:url(#SVGID_00000102537652516288205990000003645043822046329221_);fill:#C3C3CC;" d="M4.7,27.6
		c-0.5,0-1-0.4-1-1c0-0.5,0.4-1,1-1H8v-1.3H3.4c-0.5,0-1-0.4-1-1c0-0.5,0.4-1,1-1H8V21h-6c-0.5,0-1-0.4-1-1c0-0.5,0.4-1,1-1h6v-1.3
		H3.4c-0.5,0-1-0.4-1-1c0-0.5,0.4-1,1-1H8v-1.3H4.7c-0.5,0-1-0.4-1-1c0-0.5,0.4-1,1-1H8v-1.4c0-0.8,0.3-1.5,0.9-2
		c0.5-0.5,1.2-0.9,2-0.9h1.4V4.7c0-0.5,0.4-1,1-1c0.5,0,1,0.4,1,1V8h1.3V3.4c0-0.5,0.4-1,1-1c0.5,0,1,0.4,1,1V8H19v-6
		c0-0.5,0.4-1,1-1c0.5,0,1,0.4,1,1v6h1.3V3.4c0-0.5,0.4-1,1-1c0.5,0,1,0.4,1,1V8h1.3V4.7c0-0.5,0.4-1,1-1c0.5,0,1,0.4,1,1V8h1.4
		c0.8,0,1.5,0.3,2,0.8l0,0c0.5,0.5,0.8,1.2,0.8,2v1.4h3.4c0.5,0,1,0.4,1,1c0,0.5-0.4,1-1,1H32v1.3h4.7c0.5,0,1,0.4,1,1
		c0,0.5-0.4,1-1,1H32V19h6c0.5,0,1,0.4,1,1c0,0.5-0.4,1-1,1h-6v1.3h4.7c0.5,0,1,0.4,1,1c0,0.5-0.4,1-1,1H32v1.3h3.4c0.5,0,1,0.4,1,1
		c0,0.5-0.4,1-1,1H32v1.4c0,0.8-0.3,1.5-0.8,2l-0.1,0.1c-0.5,0.5-1.2,0.8-2,0.8h-1.4v3.4c0,0.5-0.4,1-1,1c-0.5,0-1-0.4-1-1V32h-1.3
		v4.7c0,0.5-0.4,1-1,1c-0.5,0-1-0.4-1-1V32H21v6c0,0.5-0.4,1-1,1c-0.5,0-1-0.4-1-1v-6h-1.3v4.7c0,0.5-0.4,1-1,1c-0.5,0-1-0.4-1-1V32
		h-1.3v3.4c0,0.5-0.4,1-1,1c-0.5,0-1-0.4-1-1V32h-1.4c-0.8,0-1.5-0.3-2-0.8l0,0c-0.5-0.5-0.8-1.2-0.8-2v-1.4L4.7,27.6L4.7,27.6z
		 M20,15.1c1.4,0,2.6,0.6,3.5,1.4l0,0c0.9,0.9,1.4,2.1,1.4,3.5c0,1.4-0.6,2.6-1.4,3.5l0,0c-0.9,0.9-2.1,1.4-3.5,1.4
		c-1.4,0-2.6-0.6-3.5-1.4l0,0c-0.9-0.9-1.4-2.1-1.4-3.5c0-1.4,0.6-2.6,1.4-3.5l0,0C17.4,15.6,18.6,15.1,20,15.1 M22.1,17.9
		c-0.5-0.5-1.3-0.9-2.1-0.9c-0.8,0-1.6,0.3-2.1,0.9c-0.5,0.5-0.9,1.3-0.9,2.1c0,0.8,0.3,1.6,0.9,2.1c0.5,0.5,1.3,0.9,2.1,0.9
		c0.8,0,1.6-0.3,2.1-0.9c0.5-0.5,0.9-1.3,0.9-2.1C22.9,19.2,22.6,18.4,22.1,17.9 M29.1,10H10.9c-0.2,0-0.5,0.1-0.6,0.3
		c-0.2,0.2-0.3,0.4-0.3,0.6v18.2c0,0.3,0.1,0.5,0.3,0.6c0.2,0.2,0.4,0.3,0.6,0.3h18.2c0.2,0,0.4-0.1,0.6-0.2l0,0
		c0.2-0.2,0.3-0.4,0.3-0.6V10.9c0-0.2-0.1-0.5-0.3-0.6C29.6,10.1,29.3,10,29.1,10L29.1,10z"/>
</g>
</svg>
