<?xml version="1.0" encoding="utf-8"?>
<!-- Generator: Adobe Illustrator 25.4.1, SVG Export Plug-In . SVG Version: 6.00 Build 0)  -->
<svg version="1.1" id="Layer_1" xmlns="http://www.w3.org/2000/svg" xmlns:xlink="http://www.w3.org/1999/xlink" x="0px" y="0px"
	 viewBox="0 0 40 40" style="enable-background:new 0 0 40 40;" xml:space="preserve">
<style type="text/css">
	.st0{clip-path:url(#SVGID_00000065792153936953867430000008879250086675003835_);fill:#C3C3CC;}
	
		.st1{clip-path:url(#SVGID_00000065792153936953867430000008879250086675003835_);fill:none;stroke:#C3C3CC;stroke-width:0.645;stroke-miterlimit:10;}
</style>
<g>
	<defs>
		<rect id="SVGID_1_" x="1.4" y="1.4" width="37.2" height="37.2"/>
	</defs>
	<clipPath id="SVGID_00000138538357250308476210000013820478887276846491_">
		<use xlink:href="#SVGID_1_"  style="overflow:visible;"/>
	</clipPath>
	<path style="clip-path:url(#SVGID_00000138538357250308476210000013820478887276846491_);fill:#C3C3CC;" d="M20,1.7
		C9.9,1.7,1.7,9.9,1.7,20c0,10.1,8.2,18.3,18.3,18.3c10.1,0,18.3-8.2,18.3-18.3C38.3,9.9,30.1,1.7,20,1.7 M35.3,15.4h-6.2
		c-0.2,0-0.4,0-0.5,0.1c-0.9-1.8-2.4-3.3-4.2-4.2c0.1-0.2,0.1-0.3,0.1-0.5V4.7C29.7,6.2,33.8,10.3,35.3,15.4 M29.4,17.7h6.4
		c0.1,0.7,0.2,1.5,0.2,2.3c0,0.8-0.1,1.5-0.2,2.3h-6.4c0.2-0.7,0.3-1.5,0.3-2.3S29.6,18.5,29.4,17.7 M20,27.4
		c-4.1,0-7.4-3.3-7.4-7.4c0-4.1,3.3-7.4,7.4-7.4c4.1,0,7.4,3.3,7.4,7.4C27.4,24.1,24.1,27.4,20,27.4 M22.3,4.2v6.4
		c-0.7-0.2-1.5-0.3-2.3-0.3s-1.5,0.1-2.3,0.3V4.2C18.5,4.1,19.2,4,20,4C20.8,4,21.5,4.1,22.3,4.2 M15.4,4.7v6.2c0,0.2,0,0.4,0.1,0.5
		c-1.8,0.9-3.3,2.4-4.2,4.2c-0.2-0.1-0.3-0.1-0.5-0.1H4.7C6.2,10.3,10.3,6.2,15.4,4.7 M4,20c0-0.8,0.1-1.5,0.2-2.3h6.4
		c-0.2,0.7-0.3,1.5-0.3,2.3s0.1,1.6,0.3,2.3H4.2C4.1,21.5,4,20.8,4,20 M4.7,24.6h6.2c0.2,0,0.4,0,0.5-0.1c0.9,1.8,2.4,3.3,4.2,4.2
		c-0.1,0.2-0.1,0.3-0.1,0.5v6.2C10.3,33.8,6.2,29.7,4.7,24.6 M17.7,35.8v-6.4c0.7,0.2,1.5,0.3,2.3,0.3s1.5-0.1,2.3-0.3v6.4
		C21.5,35.9,20.8,36,20,36C19.2,36,18.5,35.9,17.7,35.8 M24.6,35.3v-6.2c0-0.2,0-0.4-0.1-0.5c1.8-0.9,3.3-2.4,4.2-4.2
		c0.2,0.1,0.3,0.1,0.5,0.1h6.2C33.8,29.7,29.7,33.8,24.6,35.3"/>
	
		<path style="clip-path:url(#SVGID_00000138538357250308476210000013820478887276846491_);fill:none;stroke:#C3C3CC;stroke-width:0.645;stroke-miterlimit:10;" d="
		M20,1.7C9.9,1.7,1.7,9.9,1.7,20c0,10.1,8.2,18.3,18.3,18.3c10.1,0,18.3-8.2,18.3-18.3C38.3,9.9,30.1,1.7,20,1.7z M35.3,15.4h-6.2
		c-0.2,0-0.4,0-0.5,0.1c-0.9-1.8-2.4-3.3-4.2-4.2c0.1-0.2,0.1-0.3,0.1-0.5V4.7C29.7,6.2,33.8,10.3,35.3,15.4z M29.4,17.7h6.4
		c0.1,0.7,0.2,1.5,0.2,2.3c0,0.8-0.1,1.5-0.2,2.3h-6.4c0.2-0.7,0.3-1.5,0.3-2.3S29.6,18.5,29.4,17.7z M20,27.4
		c-4.1,0-7.4-3.3-7.4-7.4c0-4.1,3.3-7.4,7.4-7.4c4.1,0,7.4,3.3,7.4,7.4C27.4,24.1,24.1,27.4,20,27.4z M22.3,4.2v6.4
		c-0.7-0.2-1.5-0.3-2.3-0.3s-1.5,0.1-2.3,0.3V4.2C18.5,4.1,19.2,4,20,4C20.8,4,21.5,4.1,22.3,4.2z M15.4,4.7v6.2
		c0,0.2,0,0.4,0.1,0.5c-1.8,0.9-3.3,2.4-4.2,4.2c-0.2-0.1-0.3-0.1-0.5-0.1H4.7C6.2,10.3,10.3,6.2,15.4,4.7z M4,20
		c0-0.8,0.1-1.5,0.2-2.3h6.4c-0.2,0.7-0.3,1.5-0.3,2.3s0.1,1.6,0.3,2.3H4.2C4.1,21.5,4,20.8,4,20z M4.7,24.6h6.2
		c0.2,0,0.4,0,0.5-0.1c0.9,1.8,2.4,3.3,4.2,4.2c-0.1,0.2-0.1,0.3-0.1,0.5v6.2C10.3,33.8,6.2,29.7,4.7,24.6z M17.7,35.8v-6.4
		c0.7,0.2,1.5,0.3,2.3,0.3s1.5-0.1,2.3-0.3v6.4C21.5,35.9,20.8,36,20,36C19.2,36,18.5,35.9,17.7,35.8z M24.6,35.3v-6.2
		c0-0.2,0-0.4-0.1-0.5c1.8-0.9,3.3-2.4,4.2-4.2c0.2,0.1,0.3,0.1,0.5,0.1h6.2C33.8,29.7,29.7,33.8,24.6,35.3z"/>
</g>
</svg>
