<?xml version="1.0" encoding="utf-8"?>
<!-- Generator: Adobe Illustrator 25.4.1, SVG Export Plug-In . SVG Version: 6.00 Build 0)  -->
<svg version="1.1" id="Layer_1" xmlns="http://www.w3.org/2000/svg" xmlns:xlink="http://www.w3.org/1999/xlink" x="0px" y="0px"
	 viewBox="0 0 40 40" style="enable-background:new 0 0 40 40;" xml:space="preserve">
<style type="text/css">
	.st0{clip-path:url(#SVGID_00000084513771549662139740000014978672511204906383_);fill:#C3C3CC;}
</style>
<g>
	<defs>
		<rect id="SVGID_1_" x="2.5" y="10" width="35" height="20"/>
	</defs>
	<clipPath id="SVGID_00000037666297539263787490000014931696822669791159_">
		<use xlink:href="#SVGID_1_"  style="overflow:visible;"/>
	</clipPath>
	<path style="clip-path:url(#SVGID_00000037666297539263787490000014931696822669791159_);fill:#C3C3CC;" d="M32.5,26.3h1.2
		c2.1,0,3.8-1.7,3.8-3.8v-5c0-2.1-1.7-3.8-3.8-3.8h-1.2c0-2.1-1.7-3.8-3.8-3.8H6.2c-2.1,0-3.8,1.7-3.8,3.8v12.5
		c0,2.1,1.7,3.8,3.8,3.8h22.5C30.8,30,32.5,28.3,32.5,26.3 M33.8,16.3c0.7,0,1.2,0.6,1.2,1.2v5c0,0.7-0.6,1.2-1.2,1.2h-1.2v-7.5
		H33.8z M6.2,27.5c-0.7,0-1.2-0.6-1.2-1.2V13.8c0-0.7,0.6-1.2,1.2-1.2h22.5c0.7,0,1.2,0.6,1.2,1.2v12.5c0,0.7-0.6,1.2-1.2,1.2H6.2z
		 M10,17.5c0-0.3,0.1-0.6,0.3-0.8c0.4-0.5,1.2-0.6,1.8-0.2l5.5,4.5v-3.6c0-0.5,0.3-1,0.8-1.2c0.5-0.2,1-0.1,1.4,0.3l5,5
		c0.5,0.5,0.5,1.3,0,1.8c-0.5,0.5-1.3,0.5-1.8,0L20,20.5v3.2c0,0.5-0.3,0.9-0.7,1.1c-0.4,0.2-1,0.1-1.3-0.2l-7.5-6.2
		C10.2,18.2,10,17.9,10,17.5L10,17.5z"/>
</g>
</svg>
