<?xml version="1.0" encoding="utf-8"?>
<!-- Generator: Adobe Illustrator 25.4.1, SVG Export Plug-In . SVG Version: 6.00 Build 0)  -->
<svg version="1.1" id="Layer_1" xmlns="http://www.w3.org/2000/svg" xmlns:xlink="http://www.w3.org/1999/xlink" x="0px" y="0px"
	 viewBox="0 0 40 40" style="enable-background:new 0 0 40 40;" xml:space="preserve">
<style type="text/css">
	.st0{fill-rule:evenodd;clip-rule:evenodd;fill:#C3C3CC;stroke:#C3C3CC;stroke-width:0.5;stroke-miterlimit:10;}
</style>
<g>
	<g>
		<path class="st0" d="M27.5,34.9c0.2,0.6,0,1.2-0.6,1.5l-0.1,0.1c-0.6,0.2-1.2,0-1.5-0.6l-4.8-11.7c-0.2-0.6-0.6-0.6-0.9,0
			l-4.8,11.7c-0.2,0.6-0.9,0.8-1.5,0.6l-0.1-0.1c-0.6-0.2-0.8-0.9-0.6-1.5l4.8-11.7c0.2-0.6,0-0.8-0.6-0.6L5.1,27.5
			c-0.6,0.2-1.2,0-1.5-0.6l-0.1-0.1c-0.2-0.6,0-1.2,0.6-1.5l11.7-4.8c0.6-0.2,0.6-0.6,0-0.9L4.2,14.7c-0.6-0.2-0.8-0.9-0.6-1.5
			l0.1-0.1c0.2-0.6,0.9-0.8,1.5-0.6l11.7,4.8c0.6,0.2,0.8,0,0.6-0.6L12.5,5.1c-0.2-0.6,0-1.2,0.6-1.5l0.1-0.1c0.6-0.2,1.2,0,1.5,0.6
			l4.8,11.7c0.2,0.6,0.6,0.6,0.9,0l4.8-11.7c0.2-0.6,0.9-0.8,1.5-0.6l0.1,0.1c0.6,0.2,0.8,0.9,0.6,1.5l-4.8,11.7
			c-0.2,0.6,0,0.8,0.6,0.6l11.7-4.8c0.6-0.2,1.2,0,1.5,0.6l0.1,0.1c0.2,0.6,0,1.2-0.6,1.5l-11.7,4.8c-0.6,0.2-0.6,0.6,0,0.9
			l11.7,4.8c0.6,0.2,0.8,0.9,0.6,1.5l-0.1,0.1c-0.2,0.6-0.9,0.8-1.5,0.6l-11.7-4.8c-0.6-0.2-0.8,0-0.6,0.6L27.5,34.9z"/>
	</g>
</g>
</svg>
