<?xml version="1.0" encoding="utf-8"?>
<!-- Generator: Adobe Illustrator 25.4.1, SVG Export Plug-In . SVG Version: 6.00 Build 0)  -->
<svg version="1.1" id="Layer_1" xmlns="http://www.w3.org/2000/svg" xmlns:xlink="http://www.w3.org/1999/xlink" x="0px" y="0px"
	 viewBox="0 0 400 75" style="enable-background:new 0 0 400 75;" xml:space="preserve">
<style type="text/css">
	.st0{fill:url(#SVGID_1_);}
	.st1{fill:#11111B;stroke:#FFFFFF;stroke-width:2;stroke-miterlimit:10;}
	.st2{fill:#FFFFFF;stroke:#FFFFFF;stroke-width:0.5;stroke-miterlimit:10;}
	.st3{fill:#11121C;}
</style>
<linearGradient id="SVGID_1_" gradientUnits="userSpaceOnUse" x1="0" y1="37.5" x2="400" y2="37.5">
	<stop  offset="1.385225e-07" style="stop-color:#72EBC9"/>
	<stop  offset="1" style="stop-color:#3879F4"/>
</linearGradient>
<path class="st0" d="M362.5,75h-325C16.8,75,0,58.2,0,37.5v0C0,16.8,16.8,0,37.5,0l325,0C383.2,0,400,16.8,400,37.5v0
	C400,58.2,383.2,75,362.5,75z"/>
<g>
	<path class="st1" d="M39,67.5L39,67.5c-16.6,0-30-13.4-30-30v0c0-16.6,13.4-30,30-30h0c16.6,0,30,13.4,30,30v0
		C69,54.1,55.6,67.5,39,67.5z"/>
	<path class="st2" d="M52.5,25.1H25.5c-2.2,0-4,1.8-4,4v16.8c0,2.2,1.8,4,4,4h27.1c2.2,0,4-1.8,4-4V29.1
		C56.5,26.9,54.7,25.1,52.5,25.1 M51.9,27.3L39,36.2l-12.9-8.9H51.9z M54.3,45.9c0,1-0.8,1.8-1.8,1.8H25.5c-1,0-1.8-0.8-1.8-1.8
		V29.1c0-0.2,0-0.5,0.1-0.7l14.5,10c0.4,0.3,0.9,0.3,1.2,0l14.6-10c0.1,0.2,0.1,0.5,0.1,0.7V45.9z"/>
</g>
<g>
	<path class="st3" d="M116,13.8V17h-5.2v16.4h-3.9V17h-5.2v-3.2H116z"/>
	<path class="st3" d="M121.7,32.6c-1.2-0.7-2.1-1.6-2.8-2.8c-0.7-1.2-1-2.6-1-4.2c0-1.6,0.3-3,1-4.2c0.7-1.2,1.7-2.2,2.9-2.8
		c1.2-0.7,2.6-1,4.1-1c1.5,0,2.8,0.3,4.1,1c1.2,0.7,2.2,1.6,2.9,2.8c0.7,1.2,1.1,2.6,1.1,4.2c0,1.6-0.4,3-1.1,4.2
		c-0.7,1.2-1.7,2.2-2.9,2.8c-1.2,0.7-2.6,1-4.1,1C124.3,33.6,122.9,33.3,121.7,32.6z M127.8,29.7c0.6-0.3,1.1-0.9,1.5-1.6
		s0.6-1.5,0.6-2.5c0-1.5-0.4-2.6-1.2-3.4c-0.8-0.8-1.7-1.2-2.8-1.2s-2.1,0.4-2.8,1.2c-0.8,0.8-1.1,1.9-1.1,3.4s0.4,2.6,1.1,3.4
		c0.7,0.8,1.7,1.2,2.8,1.2C126.5,30.2,127.1,30,127.8,29.7z"/>
	<path class="st3" d="M146.3,32.6c-1.2-0.7-2.1-1.6-2.8-2.8c-0.7-1.2-1-2.6-1-4.2c0-1.6,0.3-3,1-4.2c0.7-1.2,1.7-2.2,2.9-2.8
		c1.2-0.7,2.6-1,4.1-1s2.8,0.3,4.1,1c1.2,0.7,2.2,1.6,2.9,2.8c0.7,1.2,1,2.6,1,4.2c0,1.6-0.4,3-1.1,4.2c-0.7,1.2-1.7,2.2-2.9,2.8
		c-1.2,0.7-2.6,1-4.1,1C148.8,33.6,147.4,33.3,146.3,32.6z M152.3,29.7c0.6-0.3,1.1-0.9,1.5-1.6c0.4-0.7,0.6-1.5,0.6-2.5
		c0-1.5-0.4-2.6-1.2-3.4c-0.8-0.8-1.7-1.2-2.8-1.2s-2.1,0.4-2.8,1.2c-0.8,0.8-1.1,1.9-1.1,3.4s0.4,2.6,1.1,3.4
		c0.7,0.8,1.7,1.2,2.8,1.2C151,30.2,151.7,30,152.3,29.7z"/>
	<path class="st3" d="M167.2,18.3c0.8-0.5,1.7-0.7,2.8-0.7v4.1h-1c-1.2,0-2.2,0.3-2.8,0.9c-0.6,0.6-0.9,1.6-0.9,3v7.7h-3.9V17.8h3.9
		v2.4C165.7,19.4,166.3,18.8,167.2,18.3z"/>
	<path class="st3" d="M172.5,21.4c0.6-1.2,1.5-2.1,2.6-2.8c1.1-0.7,2.3-1,3.6-1c1,0,2,0.2,2.9,0.7c0.9,0.4,1.6,1,2.2,1.8v-7.4h4
		v20.7h-4v-2.3c-0.5,0.8-1.2,1.4-2,1.8c-0.9,0.5-1.9,0.7-3.1,0.7c-1.3,0-2.5-0.3-3.6-1c-1.1-0.7-1.9-1.6-2.6-2.8
		c-0.6-1.2-0.9-2.6-0.9-4.2C171.6,24,171.9,22.6,172.5,21.4z M183.2,23.1c-0.4-0.7-0.9-1.2-1.5-1.6c-0.6-0.4-1.3-0.5-2-0.5
		c-0.7,0-1.4,0.2-2,0.5c-0.6,0.4-1.1,0.9-1.5,1.6c-0.4,0.7-0.6,1.5-0.6,2.4c0,0.9,0.2,1.8,0.6,2.5c0.4,0.7,0.9,1.2,1.5,1.6
		c0.6,0.4,1.3,0.6,2,0.6c0.7,0,1.4-0.2,2-0.5c0.6-0.4,1.1-0.9,1.5-1.6c0.4-0.7,0.6-1.5,0.6-2.4C183.8,24.6,183.6,23.8,183.2,23.1z"
		/>
	<path class="st3" d="M205.9,26.8h-11.3c0.1,1.1,0.5,2,1.2,2.6c0.7,0.6,1.5,1,2.5,1c1.5,0,2.5-0.6,3.1-1.9h4.2
		c-0.4,1.5-1.3,2.7-2.6,3.7s-2.8,1.4-4.7,1.4c-1.5,0-2.8-0.3-4-1c-1.2-0.7-2.1-1.6-2.8-2.8c-0.7-1.2-1-2.6-1-4.2c0-1.6,0.3-3,1-4.2
		c0.7-1.2,1.6-2.1,2.7-2.8c1.2-0.7,2.5-1,4.1-1c1.5,0,2.8,0.3,4,1c1.2,0.6,2.1,1.5,2.7,2.7c0.6,1.2,1,2.5,1,4
		C206,25.8,205.9,26.3,205.9,26.8z M201.9,24.1c0-1-0.4-1.8-1.1-2.4c-0.7-0.6-1.6-0.9-2.6-0.9c-1,0-1.8,0.3-2.4,0.9
		c-0.7,0.6-1.1,1.4-1.2,2.5H201.9z"/>
	<path class="st3" d="M214.7,18.3c0.8-0.5,1.7-0.7,2.8-0.7v4.1h-1c-1.2,0-2.2,0.3-2.8,0.9c-0.6,0.6-0.9,1.6-0.9,3v7.7h-3.9V17.8h3.9
		v2.4C213.3,19.4,213.9,18.8,214.7,18.3z"/>
	<path class="st3" d="M229.7,32.6c-1.2-0.7-2.1-1.6-2.8-2.8c-0.7-1.2-1-2.6-1-4.2c0-1.6,0.3-3,1-4.2c0.7-1.2,1.7-2.2,2.9-2.8
		c1.2-0.7,2.6-1,4.1-1s2.8,0.3,4.1,1c1.2,0.7,2.2,1.6,2.9,2.8c0.7,1.2,1,2.6,1,4.2c0,1.6-0.4,3-1.1,4.2c-0.7,1.2-1.7,2.2-2.9,2.8
		c-1.2,0.7-2.6,1-4.1,1C232.2,33.6,230.9,33.3,229.7,32.6z M235.7,29.7c0.6-0.3,1.1-0.9,1.5-1.6c0.4-0.7,0.6-1.5,0.6-2.5
		c0-1.5-0.4-2.6-1.2-3.4c-0.8-0.8-1.7-1.2-2.8-1.2s-2.1,0.4-2.8,1.2c-0.8,0.8-1.1,1.9-1.1,3.4s0.4,2.6,1.1,3.4
		c0.7,0.8,1.7,1.2,2.8,1.2C234.4,30.2,235.1,30,235.7,29.7z"/>
	<path class="st3" d="M250.6,18.3c0.8-0.5,1.7-0.7,2.8-0.7v4.1h-1c-1.2,0-2.2,0.3-2.8,0.9c-0.6,0.6-0.9,1.6-0.9,3v7.7h-3.9V17.8h3.9
		v2.4C249.1,19.4,249.8,18.8,250.6,18.3z"/>
	<path class="st3" d="M262.9,15.3c-0.5-0.4-0.7-1-0.7-1.6s0.2-1.2,0.7-1.6c0.5-0.4,1-0.7,1.7-0.7s1.3,0.2,1.7,0.7
		c0.5,0.4,0.7,1,0.7,1.6s-0.2,1.2-0.7,1.6c-0.5,0.4-1,0.7-1.7,0.7S263.4,15.8,262.9,15.3z M266.6,17.8v15.5h-3.9V17.8H266.6z"/>
	<path class="st3" d="M283.5,19.4c1.1,1.2,1.7,2.8,1.7,4.9v9.1h-3.9v-8.6c0-1.2-0.3-2.2-0.9-2.8c-0.6-0.7-1.5-1-2.5-1
		c-1.1,0-1.9,0.3-2.6,1c-0.6,0.7-0.9,1.6-0.9,2.8v8.6h-3.9V17.8h3.9v1.9c0.5-0.7,1.2-1.2,2-1.6c0.8-0.4,1.7-0.6,2.7-0.6
		C280.9,17.6,282.4,18.2,283.5,19.4z"/>
	<path class="st3" d="M288.9,21.4c0.6-1.2,1.5-2.1,2.6-2.8s2.3-1,3.6-1c1.1,0,2.1,0.2,2.9,0.6c0.8,0.4,1.5,1,2.1,1.6v-2h3.9v22.9
		h-3.9v-9.5c-0.5,0.7-1.2,1.2-2.1,1.7c-0.9,0.4-1.9,0.7-3,0.7c-1.3,0-2.5-0.3-3.6-1c-1.1-0.7-2-1.6-2.6-2.8c-0.6-1.2-1-2.6-1-4.1
		C287.9,24,288.3,22.6,288.9,21.4z M299.6,23.1c-0.4-0.7-0.9-1.2-1.5-1.6c-0.6-0.4-1.3-0.5-2-0.5c-0.7,0-1.3,0.2-2,0.5
		c-0.6,0.4-1.1,0.9-1.5,1.6c-0.4,0.7-0.6,1.5-0.6,2.4c0,1,0.2,1.8,0.6,2.5c0.4,0.7,0.9,1.2,1.5,1.6c0.6,0.4,1.3,0.5,2,0.5
		c0.7,0,1.4-0.2,2-0.5c0.6-0.4,1.1-0.9,1.5-1.6c0.4-0.7,0.6-1.5,0.6-2.5C300.1,24.6,299.9,23.8,299.6,23.1z"/>
	<path class="st3" d="M322.6,17.8v15.5h-3.9v-2c-0.5,0.7-1.2,1.2-2,1.6c-0.8,0.4-1.7,0.6-2.6,0.6c-1.2,0-2.3-0.3-3.2-0.8
		c-0.9-0.5-1.7-1.3-2.2-2.3s-0.8-2.2-0.8-3.6v-9.1h3.9v8.5c0,1.2,0.3,2.2,0.9,2.8s1.5,1,2.5,1c1.1,0,1.9-0.3,2.5-1s0.9-1.6,0.9-2.8
		v-8.5H322.6z"/>
	<path class="st3" d="M326.7,15.3c-0.5-0.4-0.7-1-0.7-1.6s0.2-1.2,0.7-1.6c0.5-0.4,1-0.7,1.7-0.7s1.3,0.2,1.7,0.7
		c0.5,0.4,0.7,1,0.7,1.6s-0.2,1.2-0.7,1.6c-0.5,0.4-1,0.7-1.7,0.7S327.2,15.8,326.7,15.3z M330.4,17.8v15.5h-3.9V17.8H330.4z"/>
	<path class="st3" d="M340.1,18.3c0.8-0.5,1.7-0.7,2.8-0.7v4.1h-1c-1.2,0-2.2,0.3-2.8,0.9c-0.6,0.6-0.9,1.6-0.9,3v7.7h-3.9V17.8h3.9
		v2.4C338.6,19.4,339.3,18.8,340.1,18.3z"/>
	<path class="st3" d="M359.8,26.8h-11.3c0.1,1.1,0.5,2,1.2,2.6c0.7,0.6,1.5,1,2.5,1c1.5,0,2.5-0.6,3.1-1.9h4.2
		c-0.4,1.5-1.3,2.7-2.6,3.7s-2.8,1.4-4.7,1.4c-1.5,0-2.8-0.3-4-1c-1.2-0.7-2.1-1.6-2.8-2.8c-0.7-1.2-1-2.6-1-4.2c0-1.6,0.3-3,1-4.2
		c0.7-1.2,1.6-2.1,2.7-2.8c1.2-0.7,2.5-1,4.1-1c1.5,0,2.8,0.3,4,1c1.2,0.6,2.1,1.5,2.7,2.7c0.6,1.2,1,2.5,1,4
		C359.9,25.8,359.9,26.3,359.8,26.8z M355.9,24.1c0-1-0.4-1.8-1.1-2.4c-0.7-0.6-1.6-0.9-2.6-0.9c-1,0-1.8,0.3-2.4,0.9
		c-0.7,0.6-1.1,1.4-1.2,2.5H355.9z"/>
	<path class="st3" d="M109.2,59.7l3.9-11.9h4.2l-5.7,15.5h-4.8l-5.7-15.5h4.2L109.2,59.7z"/>
	<path class="st3" d="M122.3,62.6c-1.2-0.7-2.1-1.6-2.8-2.8c-0.7-1.2-1-2.6-1-4.2c0-1.6,0.3-3,1-4.2c0.7-1.2,1.7-2.2,2.9-2.8
		c1.2-0.7,2.6-1,4.1-1c1.5,0,2.8,0.3,4.1,1c1.2,0.7,2.2,1.6,2.9,2.8c0.7,1.2,1.1,2.6,1.1,4.2c0,1.6-0.4,3-1.1,4.2
		c-0.7,1.2-1.7,2.2-2.9,2.8c-1.2,0.7-2.6,1-4.1,1C124.9,63.6,123.5,63.3,122.3,62.6z M128.4,59.7c0.6-0.3,1.1-0.9,1.5-1.6
		s0.6-1.5,0.6-2.5c0-1.5-0.4-2.6-1.2-3.4c-0.8-0.8-1.7-1.2-2.8-1.2s-2.1,0.4-2.8,1.2c-0.8,0.8-1.1,1.9-1.1,3.4s0.4,2.6,1.1,3.4
		c0.7,0.8,1.7,1.2,2.8,1.2C127.1,60.2,127.8,60,128.4,59.7z"/>
	<path class="st3" d="M141.3,42.6v20.7h-3.9V42.6H141.3z"/>
	<path class="st3" d="M159.8,47.8v15.5h-3.9v-2c-0.5,0.7-1.2,1.2-2,1.6c-0.8,0.4-1.7,0.6-2.6,0.6c-1.2,0-2.3-0.3-3.2-0.8
		c-0.9-0.5-1.7-1.3-2.2-2.3s-0.8-2.2-0.8-3.6v-9.1h3.9v8.5c0,1.2,0.3,2.2,0.9,2.8s1.5,1,2.5,1c1.1,0,1.9-0.3,2.5-1s0.9-1.6,0.9-2.8
		v-8.5H159.8z"/>
	<path class="st3" d="M187.5,49.4c1.2,1.2,1.8,2.8,1.8,4.9v9.1h-3.9v-8.6c0-1.2-0.3-2.1-0.9-2.8s-1.5-1-2.5-1c-1.1,0-1.9,0.3-2.5,1
		c-0.6,0.6-0.9,1.6-0.9,2.8v8.6h-3.9v-8.6c0-1.2-0.3-2.1-0.9-2.8s-1.5-1-2.5-1c-1.1,0-1.9,0.3-2.6,1c-0.6,0.6-0.9,1.6-0.9,2.8v8.6
		h-3.9V47.8h3.9v1.9c0.5-0.7,1.2-1.2,1.9-1.5c0.8-0.4,1.7-0.6,2.6-0.6c1.2,0,2.3,0.3,3.2,0.8c1,0.5,1.7,1.2,2.2,2.2
		c0.5-0.9,1.2-1.6,2.2-2.2c1-0.5,2-0.8,3.1-0.8C184.8,47.6,186.3,48.2,187.5,49.4z"/>
	<path class="st3" d="M207.3,56.8H196c0.1,1.1,0.5,2,1.2,2.6c0.7,0.6,1.5,1,2.5,1c1.5,0,2.5-0.6,3.1-1.9h4.2
		c-0.4,1.5-1.3,2.7-2.6,3.7s-2.8,1.4-4.7,1.4c-1.5,0-2.8-0.3-4-1c-1.2-0.7-2.1-1.6-2.8-2.8c-0.7-1.2-1-2.6-1-4.2c0-1.6,0.3-3,1-4.2
		c0.7-1.2,1.6-2.1,2.7-2.8c1.2-0.7,2.5-1,4.1-1c1.5,0,2.8,0.3,4,1c1.2,0.6,2.1,1.5,2.7,2.7c0.6,1.2,1,2.5,1,4
		C207.4,55.8,207.4,56.3,207.3,56.8z M203.3,54.1c0-1-0.4-1.8-1.1-2.4c-0.7-0.6-1.6-0.9-2.6-0.9c-1,0-1.8,0.3-2.4,0.9
		c-0.7,0.6-1.1,1.4-1.2,2.5H203.3z"/>
	<path class="st3" d="M216.9,51.4c0.6-1.2,1.5-2.1,2.6-2.8c1.1-0.7,2.3-1,3.6-1c1,0,2,0.2,2.9,0.7c0.9,0.4,1.6,1,2.2,1.8v-7.4h4
		v20.7h-4v-2.3c-0.5,0.8-1.2,1.4-2,1.8c-0.9,0.5-1.9,0.7-3.1,0.7c-1.3,0-2.5-0.3-3.6-1c-1.1-0.7-1.9-1.6-2.6-2.8
		c-0.6-1.2-0.9-2.6-0.9-4.2C215.9,54,216.2,52.6,216.9,51.4z M227.6,53.1c-0.4-0.7-0.9-1.2-1.5-1.6c-0.6-0.4-1.3-0.5-2-0.5
		c-0.7,0-1.4,0.2-2,0.5c-0.6,0.4-1.1,0.9-1.5,1.6c-0.4,0.7-0.6,1.5-0.6,2.4c0,0.9,0.2,1.8,0.6,2.5c0.4,0.7,0.9,1.2,1.5,1.6
		c0.6,0.4,1.3,0.6,2,0.6c0.7,0,1.4-0.2,2-0.5c0.6-0.4,1.1-0.9,1.5-1.6c0.4-0.7,0.6-1.5,0.6-2.4C228.1,54.6,227.9,53.8,227.6,53.1z"
		/>
	<path class="st3" d="M236.2,45.3c-0.5-0.4-0.7-1-0.7-1.6s0.2-1.2,0.7-1.6c0.5-0.4,1-0.7,1.7-0.7s1.3,0.2,1.7,0.7
		c0.5,0.4,0.7,1,0.7,1.6s-0.2,1.2-0.7,1.6c-0.5,0.4-1,0.7-1.7,0.7S236.6,45.8,236.2,45.3z M239.8,47.8v15.5h-3.9V47.8H239.8z"/>
	<path class="st3" d="M246.2,62.9c-1-0.5-1.8-1.1-2.4-1.9c-0.6-0.8-0.9-1.7-1-2.6h3.9c0.1,0.6,0.4,1.1,0.9,1.5s1.2,0.6,1.9,0.6
		c0.7,0,1.3-0.1,1.8-0.4c0.4-0.3,0.6-0.7,0.6-1.1c0-0.5-0.3-0.9-0.8-1.1c-0.5-0.3-1.3-0.5-2.5-0.8c-1.2-0.3-2.1-0.6-2.8-0.9
		c-0.7-0.3-1.4-0.8-1.9-1.4s-0.8-1.4-0.8-2.5c0-0.9,0.2-1.6,0.7-2.4c0.5-0.7,1.2-1.3,2.1-1.7s2-0.6,3.3-0.6c1.8,0,3.3,0.5,4.4,1.4
		s1.7,2.2,1.8,3.7h-3.8c-0.1-0.6-0.3-1.1-0.8-1.5c-0.5-0.4-1.1-0.5-1.8-0.5c-0.7,0-1.3,0.1-1.6,0.4c-0.4,0.3-0.6,0.6-0.6,1.1
		c0,0.5,0.3,0.9,0.8,1.2s1.3,0.5,2.4,0.8c1.1,0.3,2,0.6,2.8,0.9c0.7,0.3,1.4,0.8,1.9,1.4c0.5,0.6,0.8,1.5,0.8,2.5
		c0,0.9-0.2,1.7-0.7,2.4c-0.5,0.7-1.2,1.3-2.1,1.7c-0.9,0.4-2,0.6-3.2,0.6C248.4,63.6,247.2,63.4,246.2,62.9z"/>
	<path class="st3" d="M258.9,51.4c0.7-1.2,1.6-2.1,2.7-2.8c1.2-0.7,2.5-1,4-1c1.9,0,3.5,0.5,4.8,1.4s2.1,2.3,2.5,4h-4.2
		c-0.2-0.7-0.6-1.2-1.1-1.6c-0.5-0.4-1.2-0.6-2-0.6c-1.1,0-2,0.4-2.7,1.2c-0.7,0.8-1,2-1,3.5c0,1.5,0.3,2.6,1,3.4
		c0.7,0.8,1.5,1.2,2.7,1.2c1.6,0,2.6-0.7,3.1-2.1h4.2c-0.4,1.7-1.3,3-2.5,4c-1.3,1-2.9,1.5-4.8,1.5c-1.5,0-2.8-0.3-4-1
		c-1.2-0.7-2.1-1.6-2.7-2.8c-0.7-1.2-1-2.6-1-4.2S258.3,52.6,258.9,51.4z"/>
	<path class="st3" d="M278.7,62.6c-1.2-0.7-2.1-1.6-2.8-2.8c-0.7-1.2-1-2.6-1-4.2c0-1.6,0.3-3,1-4.2c0.7-1.2,1.7-2.2,2.9-2.8
		c1.2-0.7,2.6-1,4.1-1s2.8,0.3,4.1,1c1.2,0.7,2.2,1.6,2.9,2.8c0.7,1.2,1,2.6,1,4.2c0,1.6-0.4,3-1.1,4.2c-0.7,1.2-1.7,2.2-2.9,2.8
		c-1.2,0.7-2.6,1-4.1,1C281.2,63.6,279.9,63.3,278.7,62.6z M284.7,59.7c0.6-0.3,1.1-0.9,1.5-1.6c0.4-0.7,0.6-1.5,0.6-2.5
		c0-1.5-0.4-2.6-1.2-3.4c-0.8-0.8-1.7-1.2-2.8-1.2s-2.1,0.4-2.8,1.2c-0.8,0.8-1.1,1.9-1.1,3.4s0.4,2.6,1.1,3.4
		c0.7,0.8,1.7,1.2,2.8,1.2C283.4,60.2,284.1,60,284.7,59.7z"/>
	<path class="st3" d="M308.3,47.8v15.5h-3.9v-2c-0.5,0.7-1.2,1.2-2,1.6c-0.8,0.4-1.7,0.6-2.6,0.6c-1.2,0-2.3-0.3-3.2-0.8
		c-0.9-0.5-1.7-1.3-2.2-2.3s-0.8-2.2-0.8-3.6v-9.1h3.9v8.5c0,1.2,0.3,2.2,0.9,2.8s1.5,1,2.5,1c1.1,0,1.9-0.3,2.5-1s0.9-1.6,0.9-2.8
		v-8.5H308.3z"/>
	<path class="st3" d="M325.3,49.4c1.1,1.2,1.7,2.8,1.7,4.9v9.1H323v-8.6c0-1.2-0.3-2.2-0.9-2.8c-0.6-0.7-1.5-1-2.5-1
		c-1.1,0-1.9,0.3-2.6,1c-0.6,0.7-0.9,1.6-0.9,2.8v8.6h-3.9V47.8h3.9v1.9c0.5-0.7,1.2-1.2,2-1.6c0.8-0.4,1.7-0.6,2.7-0.6
		C322.6,47.6,324.1,48.2,325.3,49.4z"/>
	<path class="st3" d="M335.3,51.1v7.5c0,0.5,0.1,0.9,0.4,1.1s0.7,0.3,1.3,0.3h1.8v3.3h-2.5c-3.3,0-5-1.6-5-4.8v-7.5h-1.8v-3.2h1.8
		V44h3.9v3.8h3.5v3.2H335.3z"/>
	<path class="st3" d="M344.1,62.9c-1-0.5-1.8-1.1-2.4-1.9c-0.6-0.8-0.9-1.7-1-2.6h3.9c0.1,0.6,0.4,1.1,0.9,1.5s1.2,0.6,1.9,0.6
		c0.7,0,1.3-0.1,1.8-0.4c0.4-0.3,0.6-0.7,0.6-1.1c0-0.5-0.3-0.9-0.8-1.1c-0.5-0.3-1.3-0.5-2.5-0.8c-1.2-0.3-2.1-0.6-2.8-0.9
		c-0.7-0.3-1.4-0.8-1.9-1.4s-0.8-1.4-0.8-2.5c0-0.9,0.2-1.6,0.7-2.4c0.5-0.7,1.2-1.3,2.1-1.7s2-0.6,3.3-0.6c1.8,0,3.3,0.5,4.4,1.4
		s1.7,2.2,1.8,3.7h-3.8c-0.1-0.6-0.3-1.1-0.8-1.5c-0.5-0.4-1.1-0.5-1.8-0.5c-0.7,0-1.3,0.1-1.6,0.4c-0.4,0.3-0.6,0.6-0.6,1.1
		c0,0.5,0.3,0.9,0.8,1.2s1.3,0.5,2.4,0.8c1.1,0.3,2,0.6,2.8,0.9c0.7,0.3,1.4,0.8,1.9,1.4c0.5,0.6,0.8,1.5,0.8,2.5
		c0,0.9-0.2,1.7-0.7,2.4c-0.5,0.7-1.2,1.3-2.1,1.7c-0.9,0.4-2,0.6-3.2,0.6C346.2,63.6,345.1,63.4,344.1,62.9z"/>
</g>
</svg>
