<?xml version="1.0" encoding="utf-8"?>
<!-- Generator: Adobe Illustrator 25.4.1, SVG Export Plug-In . SVG Version: 6.00 Build 0)  -->
<svg version="1.1" id="Layer_1" xmlns="http://www.w3.org/2000/svg" xmlns:xlink="http://www.w3.org/1999/xlink" x="0px" y="0px"
	 viewBox="0 0 325 105" style="enable-background:new 0 0 325 105;" xml:space="preserve">
<style type="text/css">
	.st0{fill:url(#SVGID_1_);}
	.st1{fill:url(#SVGID_00000111160885867927415030000013067386642648658065_);}
	.st2{fill:url(#SVGID_00000023265996709480468670000001734519827447838108_);}
	.st3{fill:url(#SVGID_00000129172898288215870740000009687666091664541348_);}
	.st4{fill:url(#SVGID_00000012458758347191512840000012301453577546913974_);}
	.st5{fill:url(#SVGID_00000076589613105399410980000011825049531170639776_);}
	.st6{fill:url(#SVGID_00000087376279398069751660000009272592027908599214_);}
	.st7{fill:#A3A3A6;}
	.st8{fill:#EDECEF;}
	.st9{fill:#FFFFFF;}
</style>
<g>
	<g>
		
			<radialGradient id="SVGID_1_" cx="-105.8137" cy="396.5343" r="1" gradientTransform="matrix(4.7789 0 0 -4.7831 542.0875 1937.2839)" gradientUnits="userSpaceOnUse">
			<stop  offset="0" style="stop-color:#03FCFB"/>
			<stop  offset="0.63" style="stop-color:#209CB9"/>
			<stop  offset="1" style="stop-color:#275CB0"/>
		</radialGradient>
		<path class="st0" d="M36.4,45.4c2.6,0,4.8-2.1,4.8-4.8c0-2.6-2.1-4.8-4.8-4.8c-2.6,0-4.8,2.1-4.8,4.8
			C31.6,43.3,33.8,45.4,36.4,45.4z"/>
		
			<radialGradient id="SVGID_00000151544597198618235340000002095364491185730691_" cx="-127.3565" cy="454.6267" r="1" gradientTransform="matrix(19.1907 0 0 -19.2077 2480.4785 8753.4297)" gradientUnits="userSpaceOnUse">
			<stop  offset="0.49" style="stop-color:#03FCFB"/>
			<stop  offset="1" style="stop-color:#209CB9"/>
		</radialGradient>
		<path style="fill:url(#SVGID_00000151544597198618235340000002095364491185730691_);" d="M61.3,29l-1.9,1.1
			c-0.6,0.4-1.4,0.1-1.8-0.5c-0.5-1-1.1-2-1.8-2.9c0,0,0,0,0,0c-1-1.3-2-2.5-3.2-3.7c-4.3-3.9-9.9-6.3-16.2-6.3S24.5,19.1,20.3,23
			c-1.2,1.1-2.3,2.3-3.2,3.7c-0.7,0.9-1.3,1.9-1.8,2.9c-0.3,0.6-1.1,0.9-1.8,0.5L11.5,29c-0.6-0.3-0.8-1.1-0.5-1.7
			c0.6-1.1,1.2-2.1,1.8-3c0.9-1.3,2-2.6,3.1-3.7c5.2-5.3,12.4-8.6,20.5-8.6c8,0,15.3,3.3,20.5,8.6c1.1,1.2,2.2,2.4,3.1,3.7
			c0,0,0,0,0,0c0.7,1,1.3,2,1.8,3C62.1,27.9,61.9,28.6,61.3,29L61.3,29z"/>
		
			<radialGradient id="SVGID_00000129925583032520951960000016172293981802137257_" cx="-124.4407" cy="446.7642" r="1" gradientTransform="matrix(13.6281 0 0 -13.6402 1732.309 6124.0273)" gradientUnits="userSpaceOnUse">
			<stop  offset="0.49" style="stop-color:#03FCFB"/>
			<stop  offset="1" style="stop-color:#209CB9"/>
		</radialGradient>
		<path style="fill:url(#SVGID_00000129925583032520951960000016172293981802137257_);" d="M53,33.8l-1.9,1.1
			c-0.6,0.4-1.5,0.1-1.8-0.6c-0.5-1-1.1-2-1.8-2.9c0,0,0,0,0,0c-1.1-1.3-2.4-2.4-3.9-3.3c-2.1-1.2-4.6-1.9-7.2-1.9
			c-2.6,0-5.1,0.7-7.2,1.9c-1,0.6-1.9,1.3-2.7,2.1c-0.6,0.6-0.5,1.6,0.2,2l3.6,2.1c0.7,0.4,0.8,1.3,0.4,1.9c-0.4,0.5-0.7,1-0.9,1.6
			c-0.3,0.7-1.1,1-1.8,0.6l-8.2-4.7c-0.6-0.3-0.8-1.1-0.5-1.7c0.5-1.1,1.2-2.1,1.9-3.1c1-1.3,2.2-2.5,3.5-3.5
			c3.2-2.5,7.3-4.1,11.8-4.1c4.4,0,8.5,1.5,11.8,4c1.3,1,2.5,2.2,3.5,3.5c0,0,0,0,0,0c0.7,1,1.4,2,1.9,3.1
			C53.8,32.7,53.6,33.4,53,33.8L53,33.8z"/>
		
			<radialGradient id="SVGID_00000105414355843417006640000011877437537043695534_" cx="-129.0764" cy="459.2646" r="1" gradientTransform="matrix(25.2764 0 0 -25.2988 3299.0056 11632.7627)" gradientUnits="userSpaceOnUse">
			<stop  offset="0.49" style="stop-color:#03FCFB"/>
			<stop  offset="1" style="stop-color:#209CB9"/>
		</radialGradient>
		<path style="fill:url(#SVGID_00000105414355843417006640000011877437537043695534_);" d="M69.6,24.2l-1.9,1.1
			c-0.6,0.4-1.4,0.1-1.8-0.5c-0.5-1-1.1-2-1.8-3c0,0,0,0,0,0c-0.9-1.3-1.9-2.6-3-3.8C55,11.3,46.2,7.1,36.4,7.1
			c-9.8,0-18.6,4.2-24.7,10.9c-1.1,1.2-2.1,2.5-3,3.8h0c-0.6,1-1.2,1.9-1.8,3c-0.3,0.6-1.1,0.9-1.8,0.5l-1.9-1.1
			c-0.6-0.3-0.8-1.1-0.5-1.7c0.6-1,1.2-2.1,1.8-3l0,0c0.9-1.3,1.9-2.6,2.9-3.8c7-8.1,17.4-13.3,28.9-13.3c11.6,0,21.9,5.1,28.9,13.3
			c1,1.2,2,2.5,2.9,3.8c0,0,0,0,0,0c0.7,1,1.3,2,1.8,3C70.4,23.1,70.2,23.9,69.6,24.2L69.6,24.2z"/>
		
			<radialGradient id="SVGID_00000011745975769451440330000003385958414644184998_" cx="-127.357" cy="454.628" r="1" gradientTransform="matrix(19.192 0 0 -19.209 2480.6526 8793.0869)" gradientUnits="userSpaceOnUse">
			<stop  offset="0.38" style="stop-color:#3E8DDB"/>
			<stop  offset="0.78" style="stop-color:#275CB0"/>
		</radialGradient>
		<path style="fill:url(#SVGID_00000011745975769451440330000003385958414644184998_);" d="M61.3,52.2c0.6,0.3,0.8,1.1,0.5,1.7
			C61.3,55,60.6,56,60,57c0,0,0,0,0,0c-0.9,1.3-2,2.6-3.1,3.7c-5.2,5.3-12.4,8.6-20.5,8.6S21.2,66,16,60.7c-1.1-1.2-2.2-2.4-3.1-3.7
			c0,0,0,0,0,0c-0.7-1-1.3-2-1.8-3c-0.3-0.6-0.1-1.4,0.5-1.7l1.9-1.1c0.6-0.4,1.4-0.1,1.8,0.5c0.5,1,1.1,2,1.8,2.9h0
			c1,1.3,2,2.5,3.2,3.7c4.3,3.9,9.9,6.3,16.2,6.3s11.9-2.4,16.2-6.3c1.2-1.1,2.3-2.3,3.2-3.6c0,0,0,0,0,0c0.7-0.9,1.3-1.9,1.8-2.9
			c0.3-0.6,1.1-0.9,1.8-0.5L61.3,52.2L61.3,52.2z"/>
		
			<radialGradient id="SVGID_00000049932792957172416030000017777885259637429653_" cx="-124.4421" cy="446.7679" r="1" gradientTransform="matrix(13.63 0 0 -13.6421 1732.5638 6146.0088)" gradientUnits="userSpaceOnUse">
			<stop  offset="0.38" style="stop-color:#2092B8"/>
			<stop  offset="0.78" style="stop-color:#275CB0"/>
		</radialGradient>
		<path style="fill:url(#SVGID_00000049932792957172416030000017777885259637429653_);" d="M53,47.5c0.6,0.3,0.8,1.1,0.5,1.7
			c-0.5,1.1-1.2,2.1-1.9,3.1c0,0,0,0,0,0c-1,1.3-2.2,2.5-3.5,3.5c-3.2,2.5-7.3,4.1-11.8,4.1c-4.4,0-8.5-1.5-11.8-4.1
			c-1.3-1-2.5-2.2-3.5-3.5c0,0,0,0,0,0c-0.7-1-1.4-2-1.9-3.1c-0.3-0.6-0.1-1.3,0.5-1.7l1.9-1.1c0.6-0.4,1.5-0.1,1.8,0.6
			c0.5,1,1.1,2,1.8,2.9c0,0,0,0,0,0c1.1,1.3,2.4,2.4,3.9,3.3c2.1,1.2,4.6,1.9,7.2,1.9c2.6,0,5.1-0.7,7.2-1.9c1.5-0.9,2.8-2,3.9-3.3
			c0,0,0,0,0,0l-5-2.9c-0.7-0.4-0.8-1.3-0.4-1.9c0.4-0.5,0.7-1,0.9-1.6c0.3-0.7,1.1-1,1.8-0.6L53,47.5L53,47.5z"/>
		
			<radialGradient id="SVGID_00000074405451086652676150000017131253210866756005_" cx="-129.0767" cy="459.2654" r="1" gradientTransform="matrix(25.2777 0 0 -25.3001 3299.1794 11686.7744)" gradientUnits="userSpaceOnUse">
			<stop  offset="0.38" style="stop-color:#2092B8"/>
			<stop  offset="0.78" style="stop-color:#275CB0"/>
		</radialGradient>
		<path style="fill:url(#SVGID_00000074405451086652676150000017131253210866756005_);" d="M69.6,57c0.6,0.3,0.8,1.1,0.5,1.7
			c-0.6,1-1.2,2.1-1.8,3c0,0,0,0,0,0c-0.9,1.3-1.9,2.6-2.9,3.8c-7,8.1-17.4,13.3-28.9,13.3S14.5,73.7,7.5,65.6c-1-1.2-2-2.5-2.9-3.8
			c0,0,0,0,0,0h0c-0.7-1-1.3-2-1.8-3c-0.3-0.6-0.1-1.4,0.5-1.7l1.9-1.1c0.6-0.4,1.4-0.1,1.8,0.5c0.5,1,1.1,2,1.8,3c0,0,0,0,0,0
			c0.9,1.3,1.9,2.6,3,3.8c6.1,6.7,14.9,10.9,24.7,10.9S55,69.9,61.1,63.2c1.1-1.2,2.1-2.5,3-3.8c0,0,0,0,0,0c0.6-1,1.2-1.9,1.8-3
			c0.3-0.6,1.1-0.9,1.8-0.5L69.6,57L69.6,57z"/>
		<path class="st7" d="M154.4,16.6c2,0,3.6,0.6,4.9,1.8c1.2,1.2,1.9,2.9,1.9,5.2v9.7h-2.7V24c0-1.6-0.4-2.9-1.2-3.7
			c-0.8-0.9-1.9-1.3-3.4-1.3c-1.4,0-2.6,0.4-3.4,1.3c-0.8,0.9-1.3,2.2-1.3,3.9v9.1h-2.7V16.9h2.7v2.3c0.5-0.8,1.3-1.5,2.2-1.9
			C152.2,16.8,153.3,16.6,154.4,16.6z"/>
		<path class="st7" d="M134.4,33.6c-1.5,0-2.9-0.3-4.2-1c-1.2-0.7-2.2-1.7-2.9-3c-0.7-1.3-1-2.8-1-4.5c0-1.7,0.4-3.2,1.1-4.4
			c0.7-1.3,1.7-2.3,3-3c1.3-0.7,2.7-1,4.2-1c1.6,0,3,0.3,4.2,1c1.3,0.7,2.2,1.7,3,2.9c0.7,1.3,1.1,2.8,1.1,4.5
			c0,1.7-0.4,3.2-1.1,4.5c-0.7,1.3-1.7,2.3-3,3C137.4,33.2,135.9,33.6,134.4,33.6z M134.4,31.2c1,0,1.9-0.2,2.8-0.7
			c0.9-0.5,1.5-1.1,2.1-2.1c0.5-0.9,0.8-2,0.8-3.4c0-1.3-0.3-2.4-0.8-3.4c-0.5-0.9-1.2-1.6-2-2c-0.8-0.5-1.7-0.7-2.7-0.7
			c-1,0-1.9,0.2-2.8,0.7c-0.8,0.4-1.5,1.1-2,2c-0.5,0.9-0.7,2-0.7,3.4c0,1.3,0.2,2.5,0.7,3.4c0.5,0.9,1.2,1.6,2,2.1
			C132.5,30.9,133.4,31.2,134.4,31.2z"/>
		<path class="st7" d="M121.3,14.2c-0.5,0-1-0.2-1.3-0.5c-0.4-0.4-0.5-0.8-0.5-1.3c0-0.5,0.2-1,0.5-1.3c0.4-0.4,0.8-0.5,1.3-0.5
			c0.5,0,0.9,0.2,1.3,0.5c0.4,0.4,0.5,0.8,0.5,1.3c0,0.5-0.2,1-0.5,1.3C122.2,14,121.8,14.2,121.3,14.2z M122.6,16.9v16.4h-2.7V16.9
			H122.6z"/>
		<path class="st7" d="M111.4,19.5c0.5-0.9,1.2-1.7,2-2.2c0.9-0.5,2-0.8,3.3-0.8v2.8H116c-3.1,0-4.6,1.7-4.6,5v8.9h-2.7V16.9h2.7
			V19.5z"/>
		<path class="st7" d="M94.6,33.5c-1.9,0-3.7-0.4-5.3-1.3c-1.6-0.9-2.9-2.2-3.8-3.8c-0.9-1.6-1.4-3.5-1.4-5.5s0.5-3.9,1.4-5.5
			c0.9-1.6,2.2-2.9,3.8-3.8c1.6-0.9,3.4-1.4,5.3-1.4c2,0,3.7,0.5,5.3,1.4c1.6,0.9,2.9,2.2,3.8,3.8c0.9,1.6,1.4,3.5,1.4,5.5
			s-0.5,3.9-1.4,5.5c-0.9,1.6-2.2,2.9-3.8,3.8C98.3,33,96.5,33.5,94.6,33.5z M94.6,31.1c1.5,0,2.8-0.3,3.9-1
			c1.2-0.7,2.1-1.6,2.8-2.9c0.7-1.3,1-2.7,1-4.4c0-1.7-0.3-3.1-1-4.4c-0.7-1.3-1.6-2.2-2.7-2.9c-1.2-0.7-2.5-1-4-1
			c-1.5,0-2.8,0.3-4,1c-1.2,0.7-2.1,1.6-2.8,2.9c-0.7,1.2-1,2.7-1,4.4c0,1.7,0.3,3.1,1,4.4c0.7,1.3,1.6,2.2,2.8,2.9
			C91.8,30.8,93.1,31.1,94.6,31.1z"/>
		<path class="st7" d="M322.4,2.1v8h-1.1v-6l-2.7,6h-0.7l-2.7-6v6h-1.1v-8h1.1l3,6.6l3-6.6H322.4z"/>
		<path class="st7" d="M312.9,2v0.9h-2.2v7.2h-1.1V2.9h-2.2V2H312.9z"/>
		<path class="st8" d="M315.9,56.7c0,0.7,0,1.4-0.1,2.1h-16.9c0.1,2.1,0.8,3.7,2.1,4.9c1.3,1.2,2.9,1.7,4.8,1.7c1.5,0,2.8-0.3,3.8-1
			c1-0.7,1.8-1.7,2.2-2.9h3.8c-0.6,2-1.7,3.7-3.4,5c-1.7,1.3-3.8,1.9-6.3,1.9c-2,0-3.8-0.5-5.4-1.4c-1.6-0.9-2.8-2.2-3.7-3.8
			c-0.9-1.7-1.4-3.6-1.4-5.8s0.4-4.1,1.3-5.8c0.9-1.6,2.1-2.9,3.7-3.8c1.6-0.9,3.4-1.4,5.5-1.4c2,0,3.8,0.4,5.3,1.3
			c1.5,0.9,2.7,2.1,3.6,3.6C315.5,53,315.9,54.7,315.9,56.7z M312.3,55.9c0-1.3-0.3-2.5-0.9-3.4c-0.6-1-1.4-1.7-2.4-2.2
			c-1-0.5-2.1-0.8-3.4-0.8c-1.8,0-3.3,0.6-4.6,1.7c-1.2,1.1-1.9,2.7-2.1,4.7H312.3z"/>
		<path class="st8" d="M286.8,49.8v12.5c0,1,0.2,1.8,0.7,2.2c0.4,0.4,1.2,0.6,2.3,0.6h2.6v3h-3.2c-2,0-3.4-0.5-4.4-1.4
			c-1-0.9-1.5-2.4-1.5-4.4V49.8h-2.7v-2.9h2.7v-5.3h3.5v5.3h5.5v2.9H286.8z"/>
		<path class="st8" d="M255,57.4c0-2.2,0.4-4.1,1.3-5.7c0.9-1.6,2.1-2.9,3.6-3.8c1.5-0.9,3.3-1.4,5.1-1.4c1.9,0,3.5,0.4,4.8,1.2
			s2.4,1.8,3.1,3v-3.9h3.6v21.2H273v-3.9c-0.7,1.2-1.7,2.3-3.1,3.1c-1.4,0.8-3,1.2-4.8,1.2c-1.9,0-3.6-0.5-5.1-1.4
			c-1.5-0.9-2.7-2.2-3.6-3.9C255.5,61.5,255,59.5,255,57.4z M273,57.4c0-1.6-0.3-3-1-4.2c-0.6-1.2-1.5-2.1-2.6-2.7
			c-1.1-0.6-2.3-1-3.6-1c-1.3,0-2.5,0.3-3.6,0.9c-1.1,0.6-1.9,1.5-2.6,2.7c-0.6,1.2-1,2.6-1,4.2c0,1.6,0.3,3,1,4.3
			c0.6,1.2,1.5,2.1,2.6,2.7c1.1,0.6,2.3,0.9,3.6,0.9c1.3,0,2.5-0.3,3.6-0.9c1.1-0.6,2-1.6,2.6-2.7C272.7,60.4,273,59,273,57.4z"/>
		<path class="st8" d="M242,46.5c1.6,0,3.1,0.3,4.4,1c1.3,0.7,2.3,1.7,3.1,3.1c0.7,1.4,1.1,3,1.1,5v12.5h-3.5v-12
			c0-2.1-0.5-3.7-1.6-4.8c-1-1.1-2.4-1.7-4.2-1.7c-1.8,0-3.3,0.6-4.4,1.8c-1.1,1.2-1.6,2.8-1.6,5.1v11.7h-3.5v-12
			c0-2.1-0.5-3.7-1.6-4.8c-1-1.1-2.4-1.7-4.2-1.7c-1.8,0-3.3,0.6-4.4,1.8c-1.1,1.2-1.6,2.8-1.6,5.1v11.7h-3.5V46.9h3.5v3.1
			c0.7-1.1,1.6-2,2.8-2.6c1.2-0.6,2.5-0.9,3.9-0.9c1.8,0,3.4,0.4,4.7,1.2c1.4,0.8,2.4,2,3.1,3.5c0.6-1.5,1.6-2.7,2.9-3.5
			C238.8,46.9,240.3,46.5,242,46.5z"/>
		<path class="st8" d="M205.6,50.3c0.6-1.2,1.5-2.2,2.6-2.8c1.2-0.7,2.6-1,4.2-1v3.6h-0.9c-3.9,0-5.9,2.1-5.9,6.4v11.5h-3.5V46.9
			h3.5V50.3z"/>
		<path class="st8" d="M186.6,68.4c-2,0-3.8-0.5-5.4-1.4c-1.6-0.9-2.9-2.2-3.8-3.8c-0.9-1.7-1.4-3.6-1.4-5.8c0-2.2,0.5-4.1,1.4-5.7
			c1-1.7,2.2-3,3.9-3.8c1.6-0.9,3.4-1.4,5.5-1.4c2,0,3.8,0.5,5.5,1.4c1.6,0.9,2.9,2.1,3.8,3.8c1,1.6,1.4,3.6,1.4,5.8
			s-0.5,4.1-1.5,5.8c-1,1.6-2.3,2.9-3.9,3.8C190.5,68,188.6,68.4,186.6,68.4z M186.6,65.3c1.3,0,2.4-0.3,3.6-0.9
			c1.1-0.6,2-1.5,2.7-2.7c0.7-1.2,1-2.6,1-4.3s-0.3-3.1-1-4.3s-1.5-2.1-2.6-2.6c-1.1-0.6-2.3-0.9-3.5-0.9c-1.3,0-2.5,0.3-3.6,0.9
			c-1.1,0.6-1.9,1.4-2.6,2.6c-0.6,1.2-1,2.6-1,4.3c0,1.7,0.3,3.2,0.9,4.4c0.6,1.2,1.5,2.1,2.6,2.7C184.2,65,185.4,65.3,186.6,65.3z"
			/>
		<path class="st8" d="M164.7,68.4c-1.6,0-3.1-0.3-4.4-0.8c-1.3-0.6-2.3-1.3-3.1-2.3c-0.7-1-1.2-2.2-1.2-3.4h3.6
			c0.1,1.1,0.6,1.9,1.5,2.6c0.9,0.7,2.1,1,3.5,1c1.3,0,2.4-0.3,3.2-0.9c0.8-0.6,1.2-1.3,1.2-2.2c0-0.9-0.4-1.6-1.2-2
			c-0.8-0.5-2.1-0.9-3.8-1.4c-1.6-0.4-2.9-0.8-3.9-1.2c-1-0.4-1.8-1.1-2.6-1.9c-0.7-0.9-1-2-1-3.3c0-1.1,0.3-2.1,1-3
			c0.6-0.9,1.6-1.6,2.7-2.1c1.2-0.5,2.5-0.8,4.1-0.8c2.3,0,4.2,0.6,5.7,1.8c1.4,1.2,2.2,2.8,2.3,4.9h-3.5c-0.1-1.1-0.5-2-1.4-2.7
			c-0.8-0.7-1.9-1-3.2-1c-1.3,0-2.3,0.3-3,0.8c-0.7,0.5-1.1,1.2-1.1,2.1c0,0.7,0.2,1.3,0.7,1.7c0.5,0.4,1,0.8,1.7,1.1
			c0.7,0.3,1.6,0.6,2.9,0.9c1.5,0.4,2.8,0.8,3.7,1.2c1,0.4,1.8,1,2.4,1.8c0.7,0.8,1.1,1.8,1.1,3.1c0,1.2-0.3,2.2-1,3.1
			c-0.6,0.9-1.6,1.7-2.7,2.2C167.5,68.2,166.2,68.4,164.7,68.4z"/>
		<path class="st8" d="M142.8,46.5c2.6,0,4.7,0.8,6.3,2.4c1.6,1.5,2.4,3.8,2.4,6.7v12.5H148v-12c0-2.1-0.5-3.7-1.6-4.8
			c-1.1-1.1-2.5-1.7-4.3-1.7c-1.9,0-3.3,0.6-4.4,1.7c-1.1,1.2-1.6,2.8-1.6,5.1v11.7h-3.5V46.9h3.5v3c0.7-1.1,1.6-1.9,2.8-2.5
			C140,46.8,141.3,46.5,142.8,46.5z"/>
		<path class="st8" d="M127.8,56.7c0,0.7,0,1.4-0.1,2.1h-16.9c0.1,2.1,0.8,3.7,2.1,4.9c1.3,1.2,2.9,1.7,4.8,1.7c1.5,0,2.8-0.3,3.8-1
			c1-0.7,1.8-1.7,2.2-2.9h3.8c-0.6,2-1.7,3.7-3.4,5c-1.7,1.3-3.8,1.9-6.3,1.9c-2,0-3.8-0.5-5.4-1.4c-1.6-0.9-2.8-2.2-3.7-3.8
			c-0.9-1.7-1.4-3.6-1.4-5.8s0.4-4.1,1.3-5.8c0.9-1.6,2.1-2.9,3.7-3.8c1.6-0.9,3.4-1.4,5.5-1.4c2,0,3.8,0.4,5.3,1.3
			c1.5,0.9,2.7,2.1,3.6,3.6C127.4,53,127.8,54.7,127.8,56.7z M124.2,55.9c0-1.3-0.3-2.5-0.9-3.4c-0.6-1-1.4-1.7-2.4-2.2
			c-1-0.5-2.1-0.8-3.4-0.8c-1.8,0-3.3,0.6-4.6,1.7c-1.2,1.1-1.9,2.7-2.1,4.7H124.2z"/>
		<path class="st8" d="M94.3,68.3c-1.8,0-3.4-0.3-4.8-0.9c-1.4-0.6-2.5-1.5-3.3-2.6c-0.8-1.1-1.2-2.4-1.2-3.9h3.8
			c0.1,1.3,0.6,2.3,1.5,3.2c0.9,0.9,2.3,1.3,4,1.3c1.7,0,3-0.4,3.9-1.2c1-0.9,1.5-1.9,1.5-3.2c0-1-0.3-1.9-0.9-2.5
			c-0.6-0.6-1.3-1.1-2.1-1.5c-0.9-0.3-2-0.7-3.4-1.1c-1.8-0.5-3.2-0.9-4.3-1.4c-1.1-0.5-2-1.2-2.7-2.2c-0.7-1-1.1-2.3-1.1-4
			c0-1.5,0.4-2.8,1.1-3.9c0.7-1.1,1.8-2,3.1-2.6c1.4-0.6,2.9-0.9,4.7-0.9c2.5,0,4.6,0.6,6.2,1.9c1.6,1.3,2.5,2.9,2.7,5h-3.9
			c-0.1-1-0.7-1.9-1.6-2.7c-1-0.8-2.2-1.2-3.8-1.2c-1.5,0-2.7,0.4-3.6,1.2c-0.9,0.7-1.4,1.8-1.4,3.2c0,1,0.3,1.8,0.8,2.4
			c0.6,0.6,1.2,1.1,2,1.4c0.8,0.3,2,0.7,3.4,1.1c1.8,0.5,3.2,1,4.3,1.5c1.1,0.5,2,1.2,2.8,2.2c0.8,1,1.2,2.3,1.2,4
			c0,1.3-0.3,2.6-1,3.7c-0.7,1.2-1.7,2.1-3.1,2.8C97.8,68,96.2,68.3,94.3,68.3z"/>
	</g>
	<g>
		<path class="st9" d="M5.9,87.1v11.4H3.6V87.1H5.9z"/>
		<path class="st9" d="M15.8,90.4c0.7,0.7,1,1.6,1,2.9v5.3h-2.3v-5c0-0.7-0.2-1.3-0.5-1.7c-0.4-0.4-0.9-0.6-1.5-0.6
			c-0.6,0-1.1,0.2-1.5,0.6c-0.4,0.4-0.5,0.9-0.5,1.7v5H8.1v-9.1h2.3v1.1c0.3-0.4,0.7-0.7,1.2-0.9c0.5-0.2,1-0.3,1.6-0.3
			C14.2,89.3,15.1,89.7,15.8,90.4z"/>
		<path class="st9" d="M21.6,91.4v4.4c0,0.3,0.1,0.5,0.2,0.7c0.1,0.1,0.4,0.2,0.7,0.2h1.1v1.9h-1.4c-1.9,0-2.9-0.9-2.9-2.8v-4.4
			h-1.1v-1.9h1.1v-2.2h2.3v2.2h2v1.9H21.6z"/>
		<path class="st9" d="M33.7,94.7H27c0.1,0.7,0.3,1.2,0.7,1.5c0.4,0.4,0.9,0.6,1.5,0.6c0.9,0,1.5-0.4,1.8-1.1h2.5
			c-0.3,0.9-0.8,1.6-1.5,2.2s-1.7,0.8-2.7,0.8c-0.9,0-1.7-0.2-2.3-0.6c-0.7-0.4-1.2-0.9-1.6-1.6c-0.4-0.7-0.6-1.5-0.6-2.5
			c0-0.9,0.2-1.8,0.6-2.5c0.4-0.7,0.9-1.3,1.6-1.6c0.7-0.4,1.5-0.6,2.4-0.6c0.9,0,1.6,0.2,2.3,0.6c0.7,0.4,1.2,0.9,1.6,1.6
			c0.4,0.7,0.6,1.5,0.6,2.3C33.7,94.1,33.7,94.4,33.7,94.7z M31.4,93.2c0-0.6-0.2-1.1-0.6-1.4c-0.4-0.4-0.9-0.5-1.5-0.5
			c-0.6,0-1,0.2-1.4,0.5c-0.4,0.3-0.6,0.8-0.7,1.4H31.4z"/>
		<path class="st9" d="M37.7,86.4v12.1h-2.3V86.4H37.7z"/>
		<path class="st9" d="M42.2,86.4v12.1h-2.3V86.4H42.2z"/>
		<path class="st9" d="M44.6,88c-0.3-0.3-0.4-0.6-0.4-1c0-0.4,0.1-0.7,0.4-1s0.6-0.4,1-0.4s0.7,0.1,1,0.4s0.4,0.6,0.4,1
			c0,0.4-0.1,0.7-0.4,1s-0.6,0.4-1,0.4S44.9,88.3,44.6,88z M46.8,89.5v9.1h-2.3v-9.1H46.8z"/>
		<path class="st9" d="M54.4,89.7c0.5,0.3,0.9,0.6,1.2,1v-1.3h2.3v9.1c0,0.8-0.2,1.6-0.5,2.2c-0.3,0.7-0.8,1.2-1.5,1.6
			c-0.7,0.4-1.5,0.6-2.5,0.6c-1.3,0-2.3-0.3-3.2-0.9c-0.8-0.6-1.3-1.4-1.4-2.5h2.3c0.1,0.4,0.4,0.7,0.8,1c0.4,0.2,0.9,0.4,1.4,0.4
			c0.7,0,1.2-0.2,1.6-0.6c0.4-0.4,0.6-1,0.6-1.8v-1.4c-0.3,0.4-0.7,0.8-1.2,1.1c-0.5,0.3-1.1,0.4-1.8,0.4c-0.8,0-1.5-0.2-2.1-0.6
			c-0.6-0.4-1.1-0.9-1.5-1.7c-0.4-0.7-0.5-1.5-0.5-2.5c0-0.9,0.2-1.7,0.5-2.4c0.4-0.7,0.9-1.3,1.5-1.6c0.6-0.4,1.3-0.6,2.1-0.6
			C53.3,89.3,53.9,89.5,54.4,89.7z M55.3,92.6c-0.2-0.4-0.5-0.7-0.9-0.9s-0.8-0.3-1.2-0.3c-0.4,0-0.8,0.1-1.2,0.3
			c-0.4,0.2-0.7,0.5-0.9,0.9c-0.2,0.4-0.3,0.9-0.3,1.4c0,0.5,0.1,1,0.3,1.4c0.2,0.4,0.5,0.7,0.9,0.9c0.4,0.2,0.8,0.3,1.2,0.3
			c0.4,0,0.8-0.1,1.2-0.3s0.7-0.5,0.9-0.9c0.2-0.4,0.3-0.9,0.3-1.4S55.5,93,55.3,92.6z"/>
		<path class="st9" d="M68.5,94.7h-6.6c0.1,0.7,0.3,1.2,0.7,1.5c0.4,0.4,0.9,0.6,1.5,0.6c0.9,0,1.5-0.4,1.8-1.1h2.5
			c-0.3,0.9-0.8,1.6-1.5,2.2s-1.7,0.8-2.7,0.8c-0.9,0-1.7-0.2-2.3-0.6c-0.7-0.4-1.2-0.9-1.6-1.6c-0.4-0.7-0.6-1.5-0.6-2.5
			c0-0.9,0.2-1.8,0.6-2.5c0.4-0.7,0.9-1.3,1.6-1.6c0.7-0.4,1.5-0.6,2.4-0.6c0.9,0,1.6,0.2,2.3,0.6c0.7,0.4,1.2,0.9,1.6,1.6
			c0.4,0.7,0.6,1.5,0.6,2.3C68.6,94.1,68.5,94.4,68.5,94.7z M66.2,93.2c0-0.6-0.2-1.1-0.6-1.4c-0.4-0.4-0.9-0.5-1.5-0.5
			c-0.6,0-1,0.2-1.4,0.5c-0.4,0.3-0.6,0.8-0.7,1.4H66.2z"/>
		<path class="st9" d="M77.9,90.4c0.7,0.7,1,1.6,1,2.9v5.3h-2.3v-5c0-0.7-0.2-1.3-0.5-1.7c-0.4-0.4-0.9-0.6-1.5-0.6
			c-0.6,0-1.1,0.2-1.5,0.6c-0.4,0.4-0.5,0.9-0.5,1.7v5h-2.3v-9.1h2.3v1.1c0.3-0.4,0.7-0.7,1.2-0.9c0.5-0.2,1-0.3,1.6-0.3
			C76.3,89.3,77.2,89.7,77.9,90.4z"/>
		<path class="st9" d="M83.7,91.4v4.4c0,0.3,0.1,0.5,0.2,0.7c0.1,0.1,0.4,0.2,0.7,0.2h1.1v1.9h-1.4c-1.9,0-2.9-0.9-2.9-2.8v-4.4
			h-1.1v-1.9h1.1v-2.2h2.3v2.2h2v1.9H83.7z"/>
		<path class="st9" d="M98.3,96.4h-4.5L93,98.5h-2.4l4.1-11.4h2.7l4.1,11.4H99L98.3,96.4z M97.7,94.5L96,89.7l-1.7,4.8H97.7z"/>
		<path class="st9" d="M111.6,89.5v9.1h-2.3v-1.1c-0.3,0.4-0.7,0.7-1.2,0.9c-0.5,0.2-1,0.3-1.5,0.3c-0.7,0-1.3-0.1-1.9-0.4
			c-0.5-0.3-1-0.7-1.3-1.3c-0.3-0.6-0.5-1.3-0.5-2.1v-5.3h2.3v5c0,0.7,0.2,1.3,0.5,1.7c0.4,0.4,0.9,0.6,1.5,0.6
			c0.6,0,1.1-0.2,1.5-0.6c0.4-0.4,0.5-0.9,0.5-1.7v-5H111.6z"/>
		<path class="st9" d="M116.5,91.4v4.4c0,0.3,0.1,0.5,0.2,0.7c0.1,0.1,0.4,0.2,0.7,0.2h1.1v1.9h-1.4c-1.9,0-2.9-0.9-2.9-2.8v-4.4
			h-1.1v-1.9h1.1v-2.2h2.3v2.2h2v1.9H116.5z"/>
		<path class="st9" d="M121.8,98.1c-0.7-0.4-1.2-0.9-1.6-1.6c-0.4-0.7-0.6-1.5-0.6-2.5c0-0.9,0.2-1.7,0.6-2.5c0.4-0.7,1-1.3,1.7-1.6
			s1.5-0.6,2.4-0.6c0.9,0,1.7,0.2,2.4,0.6s1.3,0.9,1.7,1.6c0.4,0.7,0.6,1.5,0.6,2.5c0,0.9-0.2,1.7-0.6,2.5c-0.4,0.7-1,1.3-1.7,1.6
			c-0.7,0.4-1.5,0.6-2.4,0.6C123.3,98.7,122.5,98.5,121.8,98.1z M125.4,96.4c0.4-0.2,0.7-0.5,0.9-0.9c0.2-0.4,0.3-0.9,0.3-1.5
			c0-0.9-0.2-1.5-0.7-2c-0.5-0.5-1-0.7-1.7-0.7c-0.7,0-1.2,0.2-1.6,0.7c-0.4,0.5-0.7,1.1-0.7,2c0,0.9,0.2,1.5,0.6,2
			c0.4,0.5,1,0.7,1.6,0.7C124.6,96.7,125,96.6,125.4,96.4z"/>
		<path class="st9" d="M138.2,90.4c0.7,0.7,1,1.6,1,2.9v5.3h-2.3v-5c0-0.7-0.2-1.3-0.5-1.7c-0.4-0.4-0.9-0.6-1.5-0.6
			c-0.6,0-1.1,0.2-1.5,0.6c-0.4,0.4-0.5,0.9-0.5,1.7v5h-2.3v-9.1h2.3v1.1c0.3-0.4,0.7-0.7,1.2-0.9s1-0.3,1.6-0.3
			C136.7,89.3,137.6,89.7,138.2,90.4z"/>
		<path class="st9" d="M143.1,98.1c-0.7-0.4-1.2-0.9-1.6-1.6c-0.4-0.7-0.6-1.5-0.6-2.5c0-0.9,0.2-1.7,0.6-2.5c0.4-0.7,1-1.3,1.7-1.6
			s1.5-0.6,2.4-0.6s1.7,0.2,2.4,0.6c0.7,0.4,1.3,0.9,1.7,1.6c0.4,0.7,0.6,1.5,0.6,2.5c0,0.9-0.2,1.7-0.6,2.5c-0.4,0.7-1,1.3-1.7,1.6
			c-0.7,0.4-1.5,0.6-2.4,0.6C144.6,98.7,143.8,98.5,143.1,98.1z M146.6,96.4c0.4-0.2,0.7-0.5,0.9-0.9c0.2-0.4,0.3-0.9,0.3-1.5
			c0-0.9-0.2-1.5-0.7-2c-0.5-0.5-1-0.7-1.7-0.7c-0.7,0-1.2,0.2-1.6,0.7c-0.4,0.5-0.7,1.1-0.7,2c0,0.9,0.2,1.5,0.6,2
			c0.4,0.5,1,0.7,1.6,0.7C145.9,96.7,146.2,96.6,146.6,96.4z"/>
		<path class="st9" d="M165.8,90.4c0.7,0.7,1,1.6,1,2.9v5.3h-2.3v-5c0-0.7-0.2-1.3-0.5-1.6c-0.4-0.4-0.9-0.6-1.5-0.6
			c-0.6,0-1.1,0.2-1.5,0.6c-0.4,0.4-0.5,0.9-0.5,1.6v5h-2.3v-5c0-0.7-0.2-1.3-0.5-1.6s-0.9-0.6-1.5-0.6c-0.6,0-1.1,0.2-1.5,0.6
			c-0.4,0.4-0.5,0.9-0.5,1.6v5h-2.3v-9.1h2.3v1.1c0.3-0.4,0.7-0.7,1.1-0.9c0.5-0.2,1-0.3,1.5-0.3c0.7,0,1.3,0.2,1.9,0.4
			c0.6,0.3,1,0.7,1.3,1.3c0.3-0.5,0.7-0.9,1.3-1.3c0.6-0.3,1.2-0.5,1.8-0.5C164.2,89.3,165.1,89.7,165.8,90.4z"/>
		<path class="st9" d="M170.7,98.1c-0.7-0.4-1.2-0.9-1.6-1.6c-0.4-0.7-0.6-1.5-0.6-2.5c0-0.9,0.2-1.7,0.6-2.5c0.4-0.7,1-1.3,1.7-1.6
			s1.5-0.6,2.4-0.6s1.7,0.2,2.4,0.6s1.3,0.9,1.7,1.6c0.4,0.7,0.6,1.5,0.6,2.5c0,0.9-0.2,1.7-0.6,2.5c-0.4,0.7-1,1.3-1.7,1.6
			c-0.7,0.4-1.5,0.6-2.4,0.6C172.2,98.7,171.4,98.5,170.7,98.1z M174.2,96.4c0.4-0.2,0.7-0.5,0.9-0.9c0.2-0.4,0.3-0.9,0.3-1.5
			c0-0.9-0.2-1.5-0.7-2c-0.5-0.5-1-0.7-1.7-0.7c-0.7,0-1.2,0.2-1.6,0.7c-0.4,0.5-0.7,1.1-0.7,2c0,0.9,0.2,1.5,0.6,2
			c0.4,0.5,1,0.7,1.6,0.7C173.4,96.7,173.8,96.6,174.2,96.4z"/>
		<path class="st9" d="M188,89.5v9.1h-2.3v-1.1c-0.3,0.4-0.7,0.7-1.2,0.9c-0.5,0.2-1,0.3-1.5,0.3c-0.7,0-1.3-0.1-1.9-0.4
			c-0.5-0.3-1-0.7-1.3-1.3c-0.3-0.6-0.5-1.3-0.5-2.1v-5.3h2.3v5c0,0.7,0.2,1.3,0.5,1.7c0.4,0.4,0.9,0.6,1.5,0.6
			c0.6,0,1.1-0.2,1.5-0.6c0.4-0.4,0.5-0.9,0.5-1.7v-5H188z"/>
		<path class="st9" d="M191.7,98.3c-0.6-0.3-1.1-0.6-1.4-1.1c-0.3-0.5-0.5-1-0.6-1.5h2.3c0,0.3,0.2,0.6,0.5,0.9
			c0.3,0.2,0.7,0.3,1.1,0.3c0.4,0,0.8-0.1,1-0.3c0.2-0.2,0.4-0.4,0.4-0.7c0-0.3-0.1-0.5-0.4-0.7c-0.3-0.1-0.8-0.3-1.4-0.5
			c-0.7-0.2-1.2-0.3-1.7-0.5c-0.4-0.2-0.8-0.4-1.1-0.8c-0.3-0.4-0.5-0.8-0.5-1.5c0-0.5,0.1-1,0.4-1.4c0.3-0.4,0.7-0.7,1.2-1
			c0.5-0.2,1.2-0.4,1.9-0.4c1.1,0,1.9,0.3,2.6,0.8c0.6,0.5,1,1.3,1.1,2.2H195c0-0.4-0.2-0.6-0.5-0.9c-0.3-0.2-0.6-0.3-1.1-0.3
			c-0.4,0-0.7,0.1-1,0.2c-0.2,0.2-0.3,0.4-0.3,0.6c0,0.3,0.2,0.5,0.5,0.7c0.3,0.2,0.8,0.3,1.4,0.5c0.7,0.2,1.2,0.3,1.6,0.5
			s0.8,0.4,1.1,0.8c0.3,0.4,0.5,0.8,0.5,1.4c0,0.5-0.1,1-0.4,1.4c-0.3,0.4-0.7,0.7-1.2,1c-0.5,0.2-1.2,0.4-1.9,0.4
			C193,98.7,192.3,98.5,191.7,98.3z"/>
		<path class="st9" d="M205.4,87.1v11.4h-2.3V87.1H205.4z"/>
		<path class="st9" d="M209.3,98.1c-0.7-0.4-1.2-0.9-1.6-1.6c-0.4-0.7-0.6-1.5-0.6-2.5c0-0.9,0.2-1.7,0.6-2.5c0.4-0.7,1-1.3,1.7-1.6
			c0.7-0.4,1.5-0.6,2.4-0.6s1.7,0.2,2.4,0.6c0.7,0.4,1.3,0.9,1.7,1.6c0.4,0.7,0.6,1.5,0.6,2.5c0,0.9-0.2,1.7-0.6,2.5
			c-0.4,0.7-1,1.3-1.7,1.6c-0.7,0.4-1.5,0.6-2.4,0.6C210.8,98.7,210,98.5,209.3,98.1z M212.8,96.4c0.4-0.2,0.7-0.5,0.9-0.9
			c0.2-0.4,0.3-0.9,0.3-1.5c0-0.9-0.2-1.5-0.7-2c-0.5-0.5-1-0.7-1.7-0.7c-0.7,0-1.2,0.2-1.6,0.7c-0.4,0.5-0.7,1.1-0.7,2
			c0,0.9,0.2,1.5,0.6,2c0.4,0.5,1,0.7,1.6,0.7C212.1,96.7,212.4,96.6,212.8,96.4z"/>
		<path class="st9" d="M225.8,87.1V89h-3v9.6h-2.3V89h-3v-1.8H225.8z"/>
		<path class="st9" d="M239.2,87.1V89h-3v9.6h-2.3V89h-3v-1.8H239.2z"/>
		<path class="st9" d="M249.2,94.7h-6.6c0.1,0.7,0.3,1.2,0.7,1.5c0.4,0.4,0.9,0.6,1.5,0.6c0.9,0,1.5-0.4,1.8-1.1h2.5
			c-0.3,0.9-0.8,1.6-1.5,2.2c-0.7,0.6-1.7,0.8-2.7,0.8c-0.9,0-1.7-0.2-2.3-0.6c-0.7-0.4-1.2-0.9-1.6-1.6c-0.4-0.7-0.6-1.5-0.6-2.5
			c0-0.9,0.2-1.8,0.6-2.5c0.4-0.7,0.9-1.3,1.6-1.6s1.5-0.6,2.4-0.6c0.9,0,1.6,0.2,2.3,0.6c0.7,0.4,1.2,0.9,1.6,1.6
			c0.4,0.7,0.6,1.5,0.6,2.3C249.3,94.1,249.2,94.4,249.2,94.7z M246.9,93.2c0-0.6-0.2-1.1-0.6-1.4c-0.4-0.4-0.9-0.5-1.5-0.5
			c-0.6,0-1,0.2-1.4,0.5c-0.4,0.3-0.6,0.8-0.7,1.4H246.9z"/>
		<path class="st9" d="M253.2,86.4v12.1h-2.3V86.4H253.2z"/>
		<path class="st9" d="M263.8,94.7h-6.6c0.1,0.7,0.3,1.2,0.7,1.5c0.4,0.4,0.9,0.6,1.5,0.6c0.9,0,1.5-0.4,1.8-1.1h2.5
			c-0.3,0.9-0.8,1.6-1.5,2.2c-0.7,0.6-1.7,0.8-2.7,0.8c-0.9,0-1.7-0.2-2.3-0.6c-0.7-0.4-1.2-0.9-1.6-1.6c-0.4-0.7-0.6-1.5-0.6-2.5
			c0-0.9,0.2-1.8,0.6-2.5c0.4-0.7,0.9-1.3,1.6-1.6c0.7-0.4,1.5-0.6,2.4-0.6c0.9,0,1.6,0.2,2.3,0.6c0.7,0.4,1.2,0.9,1.6,1.6
			c0.4,0.7,0.6,1.5,0.6,2.3C263.9,94.1,263.9,94.4,263.8,94.7z M261.5,93.2c0-0.6-0.2-1.1-0.6-1.4c-0.4-0.4-0.9-0.5-1.5-0.5
			c-0.6,0-1,0.2-1.4,0.5c-0.4,0.3-0.6,0.8-0.7,1.4H261.5z"/>
		<path class="st9" d="M279.5,90.4c0.7,0.7,1,1.6,1,2.9v5.3h-2.3v-5c0-0.7-0.2-1.3-0.5-1.6c-0.4-0.4-0.9-0.6-1.5-0.6
			s-1.1,0.2-1.5,0.6c-0.4,0.4-0.5,0.9-0.5,1.6v5h-2.3v-5c0-0.7-0.2-1.3-0.5-1.6c-0.4-0.4-0.9-0.6-1.5-0.6c-0.6,0-1.1,0.2-1.5,0.6
			c-0.4,0.4-0.5,0.9-0.5,1.6v5h-2.3v-9.1h2.3v1.1c0.3-0.4,0.7-0.7,1.1-0.9c0.5-0.2,1-0.3,1.5-0.3c0.7,0,1.3,0.2,1.9,0.4
			c0.6,0.3,1,0.7,1.3,1.3c0.3-0.5,0.7-0.9,1.3-1.3c0.6-0.3,1.2-0.5,1.8-0.5C277.9,89.3,278.8,89.7,279.5,90.4z"/>
		<path class="st9" d="M282.7,91.5c0.4-0.7,0.9-1.3,1.5-1.6c0.6-0.4,1.3-0.6,2.1-0.6c0.7,0,1.3,0.1,1.8,0.4c0.5,0.3,0.9,0.6,1.2,1
			v-1.3h2.3v9.1h-2.3v-1.3c-0.3,0.4-0.7,0.8-1.2,1.1c-0.5,0.3-1.1,0.4-1.8,0.4c-0.8,0-1.5-0.2-2.1-0.6c-0.6-0.4-1.1-0.9-1.5-1.7
			c-0.4-0.7-0.5-1.5-0.5-2.5C282.1,93.1,282.3,92.2,282.7,91.5z M288.9,92.6c-0.2-0.4-0.5-0.7-0.9-0.9c-0.4-0.2-0.8-0.3-1.2-0.3
			c-0.4,0-0.8,0.1-1.2,0.3c-0.4,0.2-0.7,0.5-0.9,0.9c-0.2,0.4-0.3,0.9-0.3,1.4c0,0.5,0.1,1,0.3,1.4c0.2,0.4,0.5,0.7,0.9,0.9
			c0.4,0.2,0.8,0.3,1.2,0.3c0.4,0,0.8-0.1,1.2-0.3c0.4-0.2,0.7-0.5,0.9-0.9c0.2-0.4,0.3-0.9,0.3-1.4S289.1,93,288.9,92.6z"/>
		<path class="st9" d="M296.5,91.4v4.4c0,0.3,0.1,0.5,0.2,0.7c0.1,0.1,0.4,0.2,0.7,0.2h1.1v1.9h-1.4c-1.9,0-2.9-0.9-2.9-2.8v-4.4
			h-1.1v-1.9h1.1v-2.2h2.3v2.2h2v1.9H296.5z"/>
		<path class="st9" d="M300.3,88c-0.3-0.3-0.4-0.6-0.4-1c0-0.4,0.1-0.7,0.4-1c0.3-0.3,0.6-0.4,1-0.4c0.4,0,0.7,0.1,1,0.4
			c0.3,0.3,0.4,0.6,0.4,1c0,0.4-0.1,0.7-0.4,1c-0.3,0.3-0.6,0.4-1,0.4C300.9,88.4,300.6,88.3,300.3,88z M302.4,89.5v9.1h-2.3v-9.1
			H302.4z"/>
		<path class="st9" d="M304.7,91.5c0.4-0.7,0.9-1.2,1.6-1.6c0.7-0.4,1.5-0.6,2.3-0.6c1.1,0,2.1,0.3,2.8,0.8c0.7,0.6,1.2,1.4,1.5,2.4
			h-2.5c-0.1-0.4-0.4-0.7-0.7-0.9c-0.3-0.2-0.7-0.3-1.2-0.3c-0.7,0-1.2,0.2-1.6,0.7c-0.4,0.5-0.6,1.1-0.6,2c0,0.9,0.2,1.5,0.6,2
			c0.4,0.5,0.9,0.7,1.6,0.7c0.9,0,1.5-0.4,1.8-1.2h2.5c-0.3,1-0.7,1.8-1.5,2.3c-0.7,0.6-1.7,0.9-2.8,0.9c-0.9,0-1.6-0.2-2.3-0.6
			c-0.7-0.4-1.2-0.9-1.6-1.6c-0.4-0.7-0.6-1.5-0.6-2.5C304.1,93.1,304.3,92.2,304.7,91.5z"/>
		<path class="st9" d="M316,98.3c-0.6-0.3-1.1-0.6-1.4-1.1c-0.3-0.5-0.5-1-0.6-1.5h2.3c0,0.3,0.2,0.6,0.5,0.9
			c0.3,0.2,0.7,0.3,1.1,0.3c0.4,0,0.8-0.1,1-0.3c0.2-0.2,0.4-0.4,0.4-0.7c0-0.3-0.2-0.5-0.4-0.7c-0.3-0.1-0.8-0.3-1.4-0.5
			c-0.7-0.2-1.2-0.3-1.7-0.5c-0.4-0.2-0.8-0.4-1.1-0.8c-0.3-0.4-0.5-0.8-0.5-1.5c0-0.5,0.1-1,0.4-1.4c0.3-0.4,0.7-0.7,1.2-1
			c0.5-0.2,1.2-0.4,1.9-0.4c1.1,0,1.9,0.3,2.6,0.8c0.6,0.5,1,1.3,1.1,2.2h-2.2c0-0.4-0.2-0.6-0.4-0.9c-0.3-0.2-0.6-0.3-1.1-0.3
			c-0.4,0-0.7,0.1-1,0.2c-0.2,0.2-0.3,0.4-0.3,0.6c0,0.3,0.2,0.5,0.5,0.7c0.3,0.2,0.8,0.3,1.4,0.5c0.7,0.2,1.2,0.3,1.6,0.5
			c0.4,0.2,0.8,0.4,1.1,0.8c0.3,0.4,0.5,0.8,0.5,1.4c0,0.5-0.1,1-0.4,1.4c-0.3,0.4-0.7,0.7-1.2,1c-0.5,0.2-1.2,0.4-1.9,0.4
			C317.3,98.7,316.6,98.5,316,98.3z"/>
	</g>
</g>
</svg>
